<svg width="32" height="32" viewBox="0 0 32 32" fill="none" xmlns="http://www.w3.org/2000/svg">
<g clip-path="url(#clip0_789_18918)">
<path d="M25.7502 22H24.5002V20.75C24.5002 20.0596 23.9406 19.5 23.2502 19.5C22.5599 19.5 22.0002 20.0596 22.0002 20.75V22H20.7502C20.0599 22 19.5002 22.5596 19.5002 23.25C19.5002 23.9404 20.0599 24.5 20.7502 24.5H22.0002V25.75C22.0002 26.4404 22.5599 27 23.2502 27C23.9406 27 24.5002 26.4404 24.5002 25.75V24.5H25.7502C26.4406 24.5 27.0002 23.9404 27.0002 23.25C27.0002 22.5596 26.4406 22 25.7502 22Z" fill="white"/>
<path d="M4.75024 6.25C4.75024 9.69625 7.55399 12.5 11.0002 12.5C14.4465 12.5 17.2502 9.69625 17.2502 6.25C17.2502 2.80375 14.4465 0 11.0002 0C7.55399 0 4.75024 2.80375 4.75024 6.25ZM14.7502 6.25C14.7502 8.31775 13.068 10 11.0002 10C8.93249 10 7.25024 8.31775 7.25024 6.25C7.25024 4.18225 8.93249 2.5 11.0002 2.5C13.068 2.5 14.7502 4.18225 14.7502 6.25Z" fill="white"/>
<path d="M3.75024 27H11.0014C11.6918 27 12.2514 26.4404 12.2514 25.75C12.2514 25.0596 11.6918 24.5 11.0014 24.5H3.75024C3.06099 24.5 2.50024 23.9392 2.50024 23.25C2.50024 19.8038 5.30399 17 8.75024 17H13.2502C13.9406 17 14.5002 16.4404 14.5002 15.75C14.5002 15.0596 13.9406 14.5 13.2502 14.5H8.75024C3.92549 14.5 0.000244141 18.4253 0.000244141 23.25C0.000244141 25.3177 1.68249 27 3.75024 27Z" fill="white"/>
<path d="M23.2502 14.5C18.4255 14.5 14.5002 18.4253 14.5002 23.25C14.5002 28.0747 18.4255 32 23.2502 32C28.075 32 32.0002 28.0747 32.0002 23.25C32.0002 18.4253 28.075 14.5 23.2502 14.5ZM23.2502 29.5C19.804 29.5 17.0002 26.6962 17.0002 23.25C17.0002 19.8038 19.804 17 23.2502 17C26.6965 17 29.5002 19.8038 29.5002 23.25C29.5002 26.6962 26.6965 29.5 23.2502 29.5Z" fill="white"/>
</g>
<defs>
<clipPath id="clip0_789_18918">
<rect width="32" height="32" fill="white" transform="translate(0.000244141)"/>
</clipPath>
</defs>
</svg>
