<svg width="32" height="32" viewBox="0 0 32 32" fill="none" xmlns="http://www.w3.org/2000/svg">
<g clip-path="url(#clip0_789_13709)">
<path d="M24.5312 17.0625C20.4129 17.0625 17.0625 20.4129 17.0625 24.5312C17.0625 28.6496 20.4129 32 24.5312 32C28.6496 32 32 28.6496 32 24.5312C32 20.4129 28.6496 17.0625 24.5312 17.0625ZM24.5312 30.125C21.4468 30.125 18.9375 27.6157 18.9375 24.5312C18.9375 21.4468 21.4468 18.9375 24.5312 18.9375C27.6157 18.9375 30.125 21.4468 30.125 24.5312C30.125 27.6157 27.6157 30.125 24.5312 30.125Z" fill="white"/>
<path d="M25.4688 21.3228H23.5938V23.5936H21.323V25.4686H23.5938V27.7394H25.4688V25.4686H27.7396V23.5936H25.4688V21.3228Z" fill="white"/>
<path d="M0 14.9375H14.9375V0H0V14.9375ZM1.875 1.875H13.0625V13.0625H1.875V1.875Z" fill="white"/>
<path d="M17.0625 0V14.9375H32V0H17.0625ZM30.125 13.0625H18.9375V1.875H30.125V13.0625Z" fill="white"/>
<path d="M0 32H14.9375V17.0625H0V32ZM1.875 18.9375H13.0625V30.125H1.875V18.9375Z" fill="white"/>
</g>
<defs>
<clipPath id="clip0_789_13709">
<rect width="32" height="32" fill="white"/>
</clipPath>
</defs>
</svg>
