<svg width="86" height="74" viewBox="0 0 86 74" fill="none" xmlns="http://www.w3.org/2000/svg">
<path d="M73.7143 0H12.2857C9.02843 0.00357061 5.90558 1.30412 3.60233 3.61629C1.29908 5.92847 0.00355682 9.06343 0 12.3333V61.6667C0.00355682 64.9366 1.29908 68.0715 3.60233 70.3837C5.90558 72.6959 9.02843 73.9964 12.2857 74H73.7143C76.9716 73.9964 80.0944 72.6959 82.3977 70.3837C84.7009 68.0715 85.9964 64.9366 86 61.6667V12.3333C85.9964 9.06343 84.7009 5.92847 82.3977 3.61629C80.0944 1.30412 76.9716 0.00357061 73.7143 0ZM58.3571 12.3333C60.1796 12.3333 61.961 12.8758 63.4763 13.8922C64.9916 14.9086 66.1726 16.3533 66.87 18.0435C67.5674 19.7337 67.7499 21.5936 67.3944 23.3879C67.0388 25.1822 66.1613 26.8304 64.8726 28.1241C63.584 29.4177 61.9422 30.2987 60.1548 30.6556C58.3674 31.0125 56.5147 30.8293 54.831 30.1292C53.1473 29.4291 51.7082 28.2435 50.6957 26.7224C49.6833 25.2012 49.1429 23.4128 49.1429 21.5833C49.1454 19.1309 50.117 16.7796 51.8445 15.0454C53.5719 13.3113 55.9141 12.3359 58.3571 12.3333ZM12.2857 67.8333C10.6565 67.8333 9.09407 67.1836 7.94206 66.0272C6.79005 64.8707 6.14286 63.3022 6.14286 61.6667V48.6338L24.3487 32.3885C26.1053 30.8246 28.3897 29.9918 30.7366 30.0598C33.0835 30.1279 35.3163 31.0916 36.98 32.7546L49.4481 45.2441L26.946 67.8333H12.2857ZM79.8571 61.6667C79.8571 63.3022 79.21 64.8707 78.0579 66.0272C76.9059 67.1836 75.3435 67.8333 73.7143 67.8333H35.6343L58.9426 44.4347C60.5929 43.0259 62.6871 42.2497 64.8533 42.2441C67.0196 42.2384 69.1178 43.0036 70.7753 44.4039L79.8571 52.0004V61.6667Z" fill="#1877F2" fill-opacity="0.733333"/>
</svg>
