<svg width="117" height="101" viewBox="0 0 117 101" fill="none" xmlns="http://www.w3.org/2000/svg">
<path d="M99.759 0.797363H17.2409C12.8654 0.80216 8.67037 2.54921 5.57638 5.65519C2.48239 8.76118 0.742083 12.9724 0.737305 17.3649V83.6353C0.742083 88.0278 2.48239 92.239 5.57638 95.345C8.67037 98.451 12.8654 100.198 17.2409 100.203H99.759C104.135 100.198 108.33 98.451 111.424 95.345C114.518 92.239 116.258 88.0278 116.263 83.6353V17.3649C116.258 12.9724 114.518 8.76118 111.424 5.65519C108.33 2.54921 104.135 0.80216 99.759 0.797363ZM79.1295 17.3649C81.5776 17.3649 83.9707 18.0937 86.0062 19.4591C88.0417 20.8244 89.6282 22.765 90.565 25.0355C91.5018 27.306 91.747 29.8044 91.2694 32.2148C90.7918 34.6251 89.6129 36.8392 87.8819 38.5769C86.1508 40.3147 83.9453 41.4981 81.5443 41.9776C79.1432 42.457 76.6545 42.2109 74.3927 41.2705C72.131 40.33 70.1979 38.7374 68.8378 36.694C67.4777 34.6506 66.7518 32.2482 66.7518 29.7906C66.7552 26.4962 68.0604 23.3377 70.3809 21.0081C72.7014 18.6786 75.8478 17.3684 79.1295 17.3649ZM17.2409 91.9191C15.0524 91.9191 12.9535 91.0463 11.406 89.4928C9.8585 87.9393 8.98911 85.8323 8.98911 83.6353V66.128L33.4454 44.3054C35.805 42.2046 38.8737 41.0859 42.0264 41.1773C45.179 41.2686 48.1783 42.5632 50.4132 44.7972L67.1618 61.5745L36.9344 91.9191H17.2409ZM108.011 83.6353C108.011 85.8323 107.141 87.9393 105.594 89.4928C104.046 91.0463 101.948 91.9191 99.759 91.9191H48.6055L79.916 60.4872C82.1328 58.5947 84.946 57.5521 87.856 57.5445C90.766 57.537 93.5845 58.5649 95.811 60.4458L108.011 70.6504V83.6353Z" fill="#0000FF" fill-opacity="0.733333"/>
</svg>
