<svg width="33" height="32" viewBox="0 0 33 32" fill="none" xmlns="http://www.w3.org/2000/svg">
<g clip-path="url(#clip0_789_17636)">
<path d="M27.6021 18.3874V7.84225L14.019 0L0.435791 7.84225V23.5268L14.019 31.369L19.3117 28.3132C20.4885 30.5056 22.8035 32 25.4612 32C29.307 32 32.4358 28.8712 32.4358 25.0254C32.4358 21.9263 30.4037 19.2932 27.6021 18.3874ZM24.7896 8.3835L14.0189 14.602L3.24829 8.3835L14.019 2.16506L24.7896 8.3835ZM2.31079 10.0072L13.0815 16.2257V28.6626L2.31079 22.4442V10.0072ZM14.9565 28.6626V16.2257L25.7272 10.0072V18.0564C25.6389 18.0531 25.5503 18.0508 25.4612 18.0508C21.6154 18.0508 18.4866 21.1796 18.4866 25.0254C18.4866 25.5418 18.5435 26.0451 18.6505 26.5299L14.9565 28.6626ZM25.4612 30.125C22.6492 30.125 20.3615 27.8373 20.3615 25.0254C20.3615 22.2135 22.6492 19.9258 25.4612 19.9258C28.2731 19.9258 30.5608 22.2135 30.5608 25.0254C30.5608 27.8373 28.2731 30.125 25.4612 30.125Z" fill="white"/>
<path d="M26.3987 22.0444H24.5237V24.0879H22.4802V25.9629H24.5237V28.0066H26.3987V25.9629H28.4423V24.0879H26.3987V22.0444Z" fill="white"/>
</g>
<defs>
<clipPath id="clip0_789_17636">
<rect width="32" height="32" fill="white" transform="translate(0.435791)"/>
</clipPath>
</defs>
</svg>
