<svg width="33" height="32" viewBox="0 0 33 32" fill="none" xmlns="http://www.w3.org/2000/svg">
<g clip-path="url(#clip0_789_15095)">
<path d="M23.9985 15.125C19.3461 15.125 15.561 18.9101 15.561 23.5625C15.561 28.2149 19.3461 32 23.9985 32C28.651 32 32.436 28.2149 32.436 23.5625C32.436 18.9101 28.651 15.125 23.9985 15.125ZM23.9985 29.5C20.7246 29.5 18.061 26.8364 18.061 23.5625C18.061 20.2886 20.7246 17.625 23.9985 17.625C27.2725 17.625 29.936 20.2886 29.936 23.5625C29.936 26.8364 27.2725 29.5 23.9985 29.5ZM27.7485 23.5625C27.7485 24.2529 27.1889 24.8125 26.4985 24.8125H25.2485V26.0625C25.2485 26.7529 24.6889 27.3125 23.9985 27.3125C23.3082 27.3125 22.7485 26.7529 22.7485 26.0625V24.8125H21.4985C20.8082 24.8125 20.2485 24.2529 20.2485 23.5625C20.2485 22.8721 20.8082 22.3125 21.4985 22.3125H22.7485V21.0625C22.7485 20.3721 23.3082 19.8125 23.9985 19.8125C24.6889 19.8125 25.2485 20.3721 25.2485 21.0625V22.3125H26.4985C27.1889 22.3125 27.7485 22.8721 27.7485 23.5625ZM28.686 0H4.18604C2.11829 0 0.436035 1.68225 0.436035 3.75V7.5C0.436035 8.19038 0.99566 8.75 1.68604 8.75V27C1.68604 29.757 3.92904 32 6.68604 32H14.6235C15.3139 32 15.8735 31.4404 15.8735 30.75C15.8735 30.0596 15.3139 29.5 14.6235 29.5H6.68604C5.30754 29.5 4.18604 28.3785 4.18604 27V8.75H28.686V13.3125C28.686 14.0029 29.2457 14.5625 29.936 14.5625C30.6264 14.5625 31.186 14.0029 31.186 13.3125V8.75C31.8764 8.75 32.436 8.19038 32.436 7.5V3.75C32.436 1.68225 30.7538 0 28.686 0ZM2.93604 3.75C2.93604 3.06075 3.49679 2.5 4.18604 2.5H28.686C29.3753 2.5 29.936 3.06075 29.936 3.75V6.25H2.93604V3.75ZM19.186 13.75H13.561C12.8707 13.75 12.311 13.1904 12.311 12.5C12.311 11.8096 12.8707 11.25 13.561 11.25H19.186C19.8764 11.25 20.436 11.8096 20.436 12.5C20.436 13.1904 19.8764 13.75 19.186 13.75Z" fill="white"/>
</g>
<defs>
<clipPath id="clip0_789_15095">
<rect width="32" height="32" fill="white" transform="translate(0.436035)"/>
</clipPath>
</defs>
</svg>
