<svg width="144" height="32" viewBox="0 0 144 32" fill="none" xmlns="http://www.w3.org/2000/svg">
<path d="M2.60364 13.0779H0L3.97278 0H7.10937L11.0743 13.0779H8.4785L5.58725 2.98409H5.49489L2.60364 13.0779ZM2.45066 7.93362H8.61034V10.0938H2.45066V7.93362ZM13.3613 16.7481C13.058 16.7541 12.7731 16.73 12.5093 16.6761C12.2429 16.6252 12.0239 16.5563 11.8551 16.4754L12.3959 14.4471L12.4724 14.465C12.876 14.5999 13.2189 14.6298 13.5039 14.5579C13.7913 14.483 14.0077 14.2254 14.158 13.779L14.2979 13.3594L11.2061 3.2657H13.7175L15.5034 10.4712H15.5957L17.4027 3.2657H19.9326L16.5771 14.1385C16.4162 14.6658 16.1999 15.1272 15.9228 15.5166C15.6485 15.9091 15.3029 16.2117 14.8835 16.4274C14.4667 16.6402 13.9602 16.7481 13.3613 16.7481ZM26.1821 8.90731V3.2657H28.572V13.0779H26.2744V11.2952H26.1821C25.9868 11.8644 25.665 12.3228 25.2165 12.6794C24.768 13.0329 24.2193 13.2067 23.5704 13.2007C22.9927 13.2007 22.4836 13.0539 22.043 12.7572C21.6025 12.4606 21.2622 12.0382 21.0169 11.4899C20.7715 10.9386 20.6502 10.2795 20.6502 9.51255V3.2657H23.0375V9.03918C23.0375 9.61441 23.1747 10.0698 23.4465 10.4053C23.7208 10.7409 24.0822 10.9057 24.5359 10.8997C24.8261 10.8997 25.0925 10.8278 25.3405 10.678C25.5885 10.5282 25.7889 10.3035 25.9473 10.0069C26.1055 9.70725 26.1821 9.34174 26.1821 8.90731ZM37.1482 6.064L34.9613 6.21382C34.9059 5.90223 34.7529 5.63563 34.5049 5.41091C34.2596 5.1862 33.9272 5.07237 33.5078 5.07237C33.1384 5.07237 32.8272 5.15923 32.5765 5.336C32.3285 5.51277 32.202 5.74644 32.202 6.03705C32.202 6.27078 32.2837 6.47149 32.4472 6.63926C32.6082 6.80709 32.8878 6.93591 33.2862 7.02877L34.8531 7.3823C35.6947 7.57407 36.3198 7.88862 36.7314 8.3201C37.1429 8.75453 37.3513 9.32379 37.3513 10.0308C37.3513 10.681 37.1851 11.2472 36.8553 11.7296C36.5256 12.212 36.0718 12.5895 35.4941 12.8621C34.919 13.1348 34.2569 13.2696 33.5078 13.2696C32.3655 13.2696 31.4554 12.9999 30.7774 12.4547C30.0995 11.9094 29.7038 11.1723 29.5903 10.2436L31.9329 10.1028C32.0094 10.5012 32.1861 10.8008 32.4578 11.0075C32.7322 11.2113 33.0804 11.3131 33.5078 11.3131C33.9272 11.3131 34.2648 11.2203 34.526 11.0316C34.7845 10.8458 34.9164 10.6091 34.9164 10.3214C34.9164 9.83609 34.5445 9.5095 33.8032 9.33871L32.3101 8.98821C31.4712 8.79348 30.846 8.46387 30.4345 7.99649C30.0203 7.52615 29.8145 6.9269 29.8145 6.19587C29.8145 5.56369 29.9676 5.02139 30.2709 4.56302C30.5743 4.10761 31.0017 3.75708 31.5504 3.51139C32.0991 3.26569 32.7401 3.14286 33.4787 3.14286C34.5709 3.14286 35.4308 3.40353 36.056 3.9278C36.6812 4.45213 37.0453 5.16218 37.1482 6.064ZM40.7358 7.40624V13.0779H38.3484V0H40.6593V5.0124H40.7675C40.9627 4.43118 41.2766 3.97575 41.7145 3.64318C42.1498 3.30765 42.6932 3.14286 43.3475 3.14286C43.9462 3.14286 44.4686 3.28964 44.917 3.5863C45.3655 3.87987 45.7137 4.30233 45.9643 4.85363C46.2149 5.4019 46.3389 6.06402 46.3389 6.83701V13.0779H43.9436V7.31938C43.9436 6.71718 43.8065 6.24677 43.5374 5.90526C43.2656 5.56671 42.8858 5.39592 42.3978 5.39592C42.068 5.39592 41.7779 5.47682 41.5325 5.63859C41.2845 5.80037 41.0893 6.02811 40.9469 6.32766C40.807 6.62728 40.7358 6.9868 40.7358 7.40624ZM49.2143 16.7481C48.911 16.7541 48.6261 16.73 48.3623 16.6761C48.0959 16.6252 47.8769 16.5563 47.7081 16.4754L48.2488 14.4471L48.3253 14.465C48.729 14.5999 49.0719 14.6298 49.3568 14.5579C49.6443 14.483 49.8606 14.2254 50.011 13.779L50.1509 13.3594L47.0591 3.2657H49.5705L51.3564 10.4712H51.4487L53.2557 3.2657H55.7856L52.4301 14.1385C52.2691 14.6658 52.0528 15.1272 51.7758 15.5166C51.5015 15.9091 51.1559 16.2117 50.7364 16.4274C50.3196 16.6402 49.8132 16.7481 49.2143 16.7481ZM58.9591 13.2636C58.413 13.2606 57.9223 13.1528 57.4871 12.934C57.0518 12.7123 56.7115 12.3858 56.4636 11.9544C56.2156 11.5199 56.0916 10.9836 56.0916 10.3394C56.0916 9.78815 56.1813 9.32978 56.3554 8.96427C56.5295 8.59875 56.7695 8.30208 57.073 8.07441C57.3789 7.84667 57.7245 7.67293 58.1097 7.55606C58.4975 7.43927 58.9064 7.3583 59.339 7.31043C59.8376 7.25946 60.2412 7.20554 60.5445 7.15161C60.8479 7.10064 61.0721 7.01974 61.2119 6.91189C61.3544 6.80404 61.4256 6.64825 61.4256 6.44156V6.39962C61.4256 5.9951 61.3122 5.68053 61.0879 5.45884C60.8637 5.23709 60.5498 5.12629 60.1435 5.12629C59.7135 5.12629 59.3733 5.2311 59.1174 5.44681C58.8642 5.65955 58.6953 5.92919 58.6109 6.2588L56.395 6.05508C56.5084 5.45887 56.73 4.94352 57.0598 4.50606C57.3895 4.07162 57.8142 3.73308 58.3365 3.4964C58.8615 3.25971 59.4682 3.14286 60.1567 3.14286C60.6369 3.14286 61.0959 3.20579 61.5338 3.33462C61.9717 3.46345 62.3621 3.66119 62.705 3.9278C63.048 4.19447 63.3197 4.53605 63.5202 4.95844C63.7207 5.38091 63.8209 5.88125 63.8209 6.45951V13.0779H61.5417V11.7086H61.4784C61.3412 12.0172 61.1539 12.2899 60.9218 12.5206C60.6922 12.7513 60.4126 12.934 60.0882 13.0659C59.7637 13.1977 59.3864 13.2606 58.9591 13.2636ZM59.6476 11.3851C59.9985 11.3851 60.3097 11.3042 60.5788 11.1424C60.8505 10.9806 61.0616 10.7649 61.2119 10.4922C61.365 10.2196 61.4415 9.91402 61.4415 9.57547V8.52983C61.3676 8.58376 61.2673 8.63464 61.1354 8.67962C61.0035 8.72756 60.8585 8.76946 60.6976 8.80241C60.5393 8.83838 60.3783 8.86839 60.22 8.89535C60.0591 8.92231 59.9167 8.94623 59.7874 8.97023C59.5025 9.01817 59.2572 9.09007 59.0435 9.19496C58.8325 9.29683 58.6689 9.43461 58.5529 9.6054C58.4394 9.77915 58.3814 9.99492 58.3814 10.2526C58.3814 10.6211 58.4975 10.8997 58.7349 11.0944C58.9723 11.2862 59.2757 11.3851 59.6476 11.3851ZM68.411 0H71.4183L74.5866 8.78446H74.7184L77.8946 0H80.9098V13.0779H78.5277V4.56302H78.4354L75.4439 13.0149H73.8374L70.8696 4.54499H70.7773V13.0779H68.411V0ZM84.8114 13.2636C84.2653 13.2606 83.7746 13.1528 83.3394 12.934C82.9041 12.7123 82.5638 12.3858 82.3159 11.9544C82.0679 11.5199 81.9439 10.9836 81.9439 10.3394C81.9439 9.78815 82.0336 9.32978 82.2077 8.96427C82.3818 8.59875 82.6218 8.30208 82.9253 8.07441C83.2312 7.84667 83.5768 7.67293 83.962 7.55606C84.3497 7.43927 84.7587 7.3583 85.1913 7.31043C85.6899 7.25946 86.0935 7.20554 86.3968 7.15161C86.7002 7.10064 86.9244 7.01974 87.0642 6.91189C87.2067 6.80404 87.2779 6.64825 87.2779 6.44156V6.39962C87.2779 5.9951 87.1645 5.68053 86.9402 5.45884C86.716 5.23709 86.4021 5.12629 85.9958 5.12629C85.5658 5.12629 85.2255 5.2311 84.9697 5.44681C84.7164 5.65955 84.5476 5.92919 84.4632 6.2588L82.2473 6.05508C82.3607 5.45887 82.5823 4.94352 82.912 4.50606C83.2418 4.07162 83.6665 3.73308 84.1888 3.4964C84.7138 3.25971 85.3205 3.14286 86.009 3.14286C86.4892 3.14286 86.9482 3.20579 87.386 3.33462C87.824 3.46345 88.2144 3.66119 88.5573 3.9278C88.9003 4.19447 89.172 4.53605 89.3725 4.95844C89.573 5.38091 89.6732 5.88125 89.6732 6.45951V13.0779H87.394V11.7086H87.3307C87.1935 12.0172 87.0062 12.2899 86.7741 12.5206C86.5445 12.7513 86.2649 12.934 85.9405 13.0659C85.616 13.1977 85.2387 13.2606 84.8114 13.2636ZM85.4999 11.3851C85.8508 11.3851 86.162 11.3042 86.4311 11.1424C86.7028 10.9806 86.9139 10.7649 87.0642 10.4922C87.2173 10.2196 87.2937 9.91402 87.2937 9.57547V8.52983C87.2199 8.58376 87.1196 8.63464 86.9877 8.67962C86.8558 8.72756 86.7108 8.76946 86.5499 8.80241C86.3915 8.83838 86.2306 8.86839 86.0723 8.89535C85.9114 8.92231 85.769 8.94623 85.6397 8.97023C85.3548 9.01817 85.1095 9.09007 84.8958 9.19496C84.6848 9.29683 84.5212 9.43461 84.4052 9.6054C84.2917 9.77915 84.2336 9.99492 84.2336 10.2526C84.2336 10.6211 84.3497 10.8997 84.5872 11.0944C84.8246 11.2862 85.128 11.3851 85.4999 11.3851ZM93.4614 7.40624V13.0779H91.074V3.2657H93.4218V5.0124H93.5089C93.7041 4.43118 94.0153 3.97575 94.4427 3.64318C94.87 3.30765 95.4056 3.14286 96.0493 3.14286C96.648 3.14286 97.1704 3.28963 97.6162 3.58925C98.062 3.88887 98.4076 4.31133 98.6556 4.86263C98.9009 5.4109 99.0249 6.07001 99.0249 6.83701V13.0779H96.6375V7.31938C96.6375 6.72316 96.5003 6.25276 96.2286 5.91125C95.9543 5.56968 95.5797 5.39592 95.0996 5.39592C94.7804 5.39592 94.4981 5.47682 94.2501 5.63859C94.0022 5.80037 93.8096 6.02811 93.6698 6.32766C93.53 6.62728 93.4614 6.9868 93.4614 7.40624ZM103.586 13.2367C102.926 13.2367 102.33 13.0419 101.8 12.6554C101.27 12.2689 100.85 11.6996 100.542 10.9507C100.23 10.1986 100.077 9.27585 100.077 8.18825C100.077 7.06474 100.236 6.12998 100.555 5.38092C100.877 4.63194 101.301 4.07164 101.832 3.70014C102.362 3.32864 102.942 3.14286 103.57 3.14286C104.055 3.14286 104.459 3.23276 104.784 3.41848C105.108 3.6013 105.372 3.83192 105.572 4.1076C105.773 4.38321 105.926 4.65285 106.029 4.92255H106.097V0H108.493V13.0779H106.137V11.5079H106.029C105.921 11.7745 105.762 12.0442 105.557 12.3108C105.351 12.5745 105.087 12.7963 104.765 12.973C104.443 13.1468 104.05 13.2367 103.586 13.2367ZM104.335 11.0765C104.723 11.0765 105.05 10.9536 105.322 10.7109C105.591 10.4683 105.797 10.1327 105.939 9.69826C106.081 9.26685 106.153 8.76051 106.153 8.17922C106.153 7.59505 106.081 7.08571 105.942 6.65726C105.804 6.22578 105.599 5.89329 105.324 5.65654C105.053 5.41986 104.723 5.30002 104.335 5.30002C103.945 5.30002 103.615 5.42288 103.346 5.66858C103.079 5.9142 102.874 6.25276 102.737 6.68423C102.597 7.11269 102.528 7.613 102.528 8.17922C102.528 8.74847 102.597 9.24888 102.737 9.68628C102.874 10.1207 103.079 10.4623 103.351 10.7079C103.62 10.9536 103.95 11.0765 104.335 11.0765ZM112.349 13.2636C111.803 13.2606 111.313 13.1528 110.877 12.934C110.442 12.7123 110.102 12.3858 109.854 11.9544C109.606 11.5199 109.482 10.9836 109.482 10.3394C109.482 9.78815 109.572 9.32978 109.746 8.96427C109.92 8.59875 110.16 8.30208 110.463 8.07441C110.769 7.84667 111.115 7.67293 111.5 7.55606C111.888 7.43927 112.297 7.3583 112.729 7.31043C113.228 7.25946 113.631 7.20554 113.935 7.15161C114.238 7.10064 114.462 7.01974 114.602 6.91189C114.745 6.80404 114.816 6.64825 114.816 6.44156V6.39962C114.816 5.9951 114.702 5.68053 114.478 5.45884C114.254 5.23709 113.94 5.12629 113.534 5.12629C113.104 5.12629 112.764 5.2311 112.508 5.44681C112.254 5.65955 112.086 5.92919 112.001 6.2588L109.785 6.05508C109.899 5.45887 110.12 4.94352 110.45 4.50606C110.78 4.07162 111.204 3.73308 111.727 3.4964C112.252 3.25971 112.858 3.14286 113.547 3.14286C114.027 3.14286 114.486 3.20579 114.924 3.33462C115.362 3.46345 115.752 3.66119 116.095 3.9278C116.438 4.19447 116.71 4.53605 116.91 4.95844C117.111 5.38091 117.211 5.88125 117.211 6.45951V13.0779H114.932V11.7086H114.869C114.732 12.0172 114.544 12.2899 114.312 12.5206C114.083 12.7513 113.803 12.934 113.478 13.0659C113.154 13.1977 112.777 13.2606 112.349 13.2636ZM113.038 11.3851C113.389 11.3851 113.7 11.3042 113.969 11.1424C114.241 10.9806 114.452 10.7649 114.602 10.4922C114.755 10.2196 114.832 9.91402 114.832 9.57547V8.52983C114.758 8.58376 114.658 8.63464 114.526 8.67962C114.394 8.72756 114.249 8.76946 114.088 8.80241C113.93 8.83838 113.769 8.86839 113.61 8.89535C113.449 8.92231 113.307 8.94623 113.178 8.97023C112.893 9.01817 112.647 9.09007 112.434 9.19496C112.223 9.29683 112.059 9.43461 111.943 9.6054C111.83 9.77915 111.772 9.99492 111.772 10.2526C111.772 10.6211 111.888 10.8997 112.125 11.0944C112.363 11.2862 112.666 11.3851 113.038 11.3851ZM120.999 0V13.0779H118.612V0H120.999ZM124.861 13.2636C124.315 13.2606 123.825 13.1528 123.389 12.934C122.954 12.7123 122.614 12.3858 122.366 11.9544C122.118 11.5199 121.994 10.9836 121.994 10.3394C121.994 9.78815 122.084 9.32978 122.258 8.96427C122.432 8.59875 122.672 8.30208 122.975 8.07441C123.281 7.84667 123.627 7.67293 124.012 7.55606C124.4 7.43927 124.809 7.3583 125.241 7.31043C125.74 7.25946 126.143 7.20554 126.447 7.15161C126.75 7.10064 126.974 7.01974 127.114 6.91189C127.257 6.80404 127.328 6.64825 127.328 6.44156V6.39962C127.328 5.9951 127.215 5.68053 126.99 5.45884C126.766 5.23709 126.452 5.12629 126.046 5.12629C125.616 5.12629 125.276 5.2311 125.02 5.44681C124.766 5.65955 124.598 5.92919 124.513 6.2588L122.297 6.05508C122.411 5.45887 122.632 4.94352 122.962 4.50606C123.292 4.07162 123.716 3.73308 124.239 3.4964C124.764 3.25971 125.371 3.14286 126.059 3.14286C126.539 3.14286 126.998 3.20579 127.436 3.33462C127.874 3.46345 128.264 3.66119 128.607 3.9278C128.95 4.19447 129.222 4.53605 129.423 4.95844C129.623 5.38091 129.723 5.88125 129.723 6.45951V13.0779H127.444V11.7086H127.381C127.244 12.0172 127.056 12.2899 126.824 12.5206C126.595 12.7513 126.315 12.934 125.99 13.0659C125.666 13.1977 125.289 13.2606 124.861 13.2636ZM125.55 11.3851C125.901 11.3851 126.212 11.3042 126.481 11.1424C126.753 10.9806 126.964 10.7649 127.114 10.4922C127.267 10.2196 127.344 9.91402 127.344 9.57547V8.52983C127.27 8.58376 127.17 8.63464 127.038 8.67962C126.906 8.72756 126.761 8.76946 126.6 8.80241C126.442 8.83838 126.281 8.86839 126.122 8.89535C125.961 8.92231 125.819 8.94623 125.69 8.97023C125.405 9.01817 125.16 9.09007 124.946 9.19496C124.735 9.29683 124.571 9.43461 124.455 9.6054C124.342 9.77915 124.284 9.99492 124.284 10.2526C124.284 10.6211 124.4 10.8997 124.637 11.0944C124.875 11.2862 125.178 11.3851 125.55 11.3851ZM131.124 13.0779V3.2657H133.387V5.0124H133.496C133.675 4.43118 133.978 3.97575 134.4 3.64318C134.822 3.30765 135.324 3.14286 135.907 3.14286C136.5 3.14286 137.004 3.31062 137.418 3.64621C137.832 3.98174 138.109 4.43716 138.249 5.0124H138.342C138.516 4.44315 138.835 3.99076 139.299 3.65221C139.763 3.31063 140.31 3.14286 140.937 3.14286C141.742 3.14286 142.399 3.43051 142.905 4.01173C143.412 4.58999 143.668 5.41093 143.668 6.47748V13.0779H141.27V7.01977C141.27 6.4715 141.143 6.06105 140.887 5.79142C140.634 5.52475 140.315 5.38993 139.932 5.38993C139.5 5.38993 139.162 5.54574 138.917 5.85733C138.671 6.17188 138.55 6.58235 138.55 7.09169V13.0779H136.231V6.9509C136.231 6.47747 136.11 6.09696 135.867 5.81536C135.627 5.53074 135.311 5.38993 134.917 5.38993C134.651 5.38993 134.411 5.46484 134.2 5.61761C133.989 5.77045 133.82 5.97713 133.696 6.24381C133.572 6.51041 133.511 6.82806 133.511 7.19654V13.0779H131.124Z" fill="black"/>
<path d="M31.2913 29.6269C31.3917 29.2275 31.5083 28.7854 31.6411 28.3005C31.7738 27.8155 31.9299 27.243 32.1093 26.5828C32.2887 25.9227 32.4986 25.1403 32.739 24.2356C32.9794 23.3309 33.2575 22.2592 33.5732 21.0204C33.5804 20.9878 33.5948 20.9226 33.6163 20.8248C33.6378 20.727 33.6485 20.6292 33.6485 20.5314C33.6485 20.4662 33.6378 20.4153 33.6163 20.3786C33.5948 20.3419 33.5553 20.3236 33.4979 20.3236C33.34 20.3236 33.1893 20.3949 33.0458 20.5375C32.9023 20.6802 32.7749 20.8595 32.6637 21.0754C32.5524 21.2914 32.4645 21.5155 32.3999 21.7478C32.3354 21.9801 32.3031 22.1899 32.3031 22.3774C32.3031 22.5567 32.3318 22.7319 32.3892 22.9031C32.1021 22.9031 31.8994 22.8297 31.781 22.683C31.6626 22.5363 31.6034 22.353 31.6034 22.1328C31.6034 21.8558 31.6787 21.5787 31.8294 21.3016C31.9802 21.0245 32.1703 20.7698 32.3999 20.5375C32.6296 20.3052 32.8699 20.1178 33.1211 19.9752C33.3723 19.8325 33.6019 19.7612 33.81 19.7612C34.0468 19.7612 34.2423 19.8651 34.3967 20.0729C34.5509 20.2808 34.6765 20.564 34.7734 20.9226C34.8703 21.2812 34.9528 21.6887 35.0209 22.1451C35.0891 22.6015 35.1519 23.0823 35.2093 23.5877C35.2811 24.15 35.3421 24.6289 35.3923 25.0241C35.4426 25.4194 35.4856 25.7535 35.5215 26.0265C35.5573 26.2996 35.5897 26.538 35.6184 26.7418C35.647 26.9455 35.6757 27.1452 35.7044 27.3408C35.7762 26.9577 35.8588 26.54 35.952 26.0877C36.0454 25.6354 36.1422 25.1708 36.2427 24.6941C36.3431 24.2173 36.4454 23.7527 36.5494 23.3004C36.6535 22.8481 36.7557 22.4263 36.8562 22.0351C36.9567 21.6439 37.05 21.3057 37.1361 21.0204C37.2222 20.7352 37.2975 20.5233 37.3621 20.3847C37.4195 20.2624 37.5164 20.126 37.6527 19.9752C37.7891 19.8244 37.9613 19.749 38.1694 19.749C38.0474 20.1239 37.9093 20.5823 37.755 21.1243C37.6007 21.6663 37.4446 22.2531 37.2868 22.8847C37.1289 23.5164 36.9764 24.1602 36.8293 24.8163C36.6822 25.4724 36.5494 26.106 36.431 26.7173C36.3126 27.3285 36.2193 27.8868 36.1512 28.3921C36.083 28.8974 36.0489 29.309 36.0489 29.6269C35.7978 29.6269 35.5932 29.5555 35.4354 29.4129C35.2775 29.2703 35.1591 28.9993 35.0802 28.5999C35.0515 28.4369 35.0084 28.1843 34.951 27.842C34.8936 27.4997 34.8308 27.1044 34.7626 26.6562C34.6944 26.2079 34.6245 25.7393 34.5527 25.2503C34.481 24.7613 34.411 24.2804 34.3428 23.8077C34.2747 23.335 34.2119 22.9091 34.1545 22.5302C34.0971 22.1512 34.0504 21.8518 34.0145 21.6316C33.6844 22.9927 33.4028 24.1459 33.1695 25.0914C32.9363 26.0368 32.7336 26.8049 32.5614 27.3957C32.3892 27.9867 32.2367 28.4451 32.1039 28.7711C31.9712 29.0971 31.8402 29.3212 31.711 29.4435C31.5819 29.5657 31.4419 29.6269 31.2913 29.6269ZM38.417 29.1378C38.1873 29.1378 37.9882 29.0502 37.8196 28.875C37.6509 28.6998 37.5666 28.4369 37.5666 28.0865C37.5666 27.7931 37.624 27.4793 37.7389 27.1452C37.8536 26.811 38.0115 26.4809 38.2125 26.155C38.4134 25.8289 38.643 25.5314 38.9014 25.2625C39.1597 24.9935 39.4342 24.7776 39.7248 24.6146C40.0154 24.4515 40.3042 24.3701 40.5913 24.3701C40.8927 24.3701 41.1456 24.4577 41.3501 24.6329C41.5547 24.8081 41.6569 25.0384 41.6569 25.3236C41.6569 25.5437 41.5959 25.6985 41.4739 25.7882C41.352 25.8778 41.2012 25.9064 41.0218 25.8738C41.0362 25.8086 41.0488 25.7372 41.0595 25.6598C41.0703 25.5824 41.0757 25.507 41.0757 25.4336C41.0757 25.2625 41.0434 25.1117 40.9788 24.9813C40.9142 24.8509 40.7886 24.7858 40.6021 24.7858C40.4011 24.7858 40.1966 24.8631 39.9885 25.018C39.7804 25.1729 39.5795 25.3766 39.3857 25.6292C39.192 25.8819 39.0198 26.159 38.8691 26.4606C38.7183 26.7621 38.5999 27.0596 38.5138 27.353C38.4278 27.6464 38.3847 27.9072 38.3847 28.1354C38.3847 28.4125 38.4744 28.551 38.6538 28.551C38.8188 28.551 39 28.4614 39.1973 28.2821C39.3947 28.1028 39.5956 27.8746 39.8002 27.5975C40.0046 27.3204 40.2002 27.0372 40.3868 26.7479C40.5734 26.4585 40.7348 26.2039 40.8712 25.9837C40.8999 25.943 40.925 25.9227 40.9465 25.9227C40.9824 25.9308 41.0398 25.9492 41.1187 25.9776C41.1976 26.0062 41.2694 26.0449 41.334 26.0938C41.3986 26.1427 41.4309 26.2079 41.4309 26.2894C41.4309 26.3709 41.3986 26.4748 41.334 26.6012C41.2694 26.7274 41.1976 26.868 41.1187 27.0229C41.0398 27.1778 40.9681 27.3326 40.9034 27.4874C40.8389 27.6423 40.8066 27.7931 40.8066 27.9398C40.8066 28.0458 40.8335 28.1497 40.8873 28.2516C40.9411 28.3534 41.029 28.4043 41.151 28.4043C41.3304 28.4043 41.5762 28.2556 41.8884 27.9581C42.2005 27.6606 42.518 27.1737 42.8409 26.4972L43.0132 26.6928C42.8481 27.1329 42.6454 27.52 42.405 27.8542C42.1646 28.1884 41.9117 28.4512 41.6462 28.6427C41.3807 28.8343 41.1152 28.93 40.8496 28.93C40.5626 28.93 40.3509 28.8302 40.2145 28.6305C40.0782 28.4309 40.0029 28.2128 39.9885 27.9765C39.9885 27.952 39.9903 27.9255 39.9939 27.897C39.9975 27.8685 39.9993 27.842 39.9993 27.8175C39.7051 28.2332 39.4359 28.5572 39.192 28.7894C38.948 29.0217 38.6896 29.1378 38.417 29.1378ZM43.5513 29.1256C43.2356 29.1256 42.9862 29.0217 42.8033 28.8139C42.6203 28.606 42.5288 28.2903 42.5288 27.8664C42.5288 27.5242 42.5862 27.1003 42.701 26.595C42.8158 26.0898 42.9593 25.5681 43.1316 25.0302C43.0742 25.0139 43.0114 24.9997 42.9432 24.9874C42.875 24.9752 42.8122 24.9528 42.7548 24.9202V24.5901C42.8481 24.6064 42.9325 24.6186 43.0078 24.6268C43.0831 24.6349 43.1639 24.6431 43.25 24.6512C43.4007 24.2193 43.5639 23.7995 43.7397 23.3921C43.9156 22.9846 44.0896 22.6219 44.2618 22.3041C44.434 21.9862 44.5991 21.7335 44.7569 21.5461C44.9148 21.3586 45.0511 21.2649 45.1659 21.2649C45.2377 21.2649 45.3023 21.2934 45.3597 21.3505C45.4171 21.4075 45.4458 21.489 45.4458 21.595C45.4458 21.7498 45.3723 21.9801 45.2252 22.2857C45.0781 22.5913 44.895 22.9499 44.6762 23.3615C44.4573 23.7731 44.2474 24.2152 44.0465 24.688C44.1039 24.688 44.1631 24.688 44.2241 24.688C44.2851 24.688 44.3443 24.688 44.4017 24.688C44.6888 24.688 44.9614 24.6818 45.2198 24.6696C45.4781 24.6573 45.74 24.6349 46.0055 24.6024V24.9446C45.6108 24.9935 45.2502 25.0302 44.9237 25.0547C44.5972 25.0791 44.2941 25.0914 44.0142 25.0914C43.9927 25.0914 43.9693 25.0914 43.9442 25.0914C43.9191 25.0914 43.8958 25.0914 43.8743 25.0914C43.7164 25.507 43.5819 25.9308 43.4706 26.3628C43.3594 26.7947 43.3038 27.2144 43.3038 27.622C43.3038 27.9642 43.3505 28.2067 43.4437 28.3494C43.537 28.4919 43.6877 28.5633 43.8958 28.5633C44.2546 28.5633 44.6206 28.3758 44.9937 28.0009C45.3669 27.626 45.6898 27.1207 45.9625 26.485L46.1132 26.6073C45.9337 27.08 45.7077 27.5079 45.4351 27.8909C45.1624 28.274 44.8663 28.5755 44.547 28.7956C44.2277 29.0156 43.8958 29.1256 43.5513 29.1256ZM46.5007 28.93C46.2567 28.93 46.0575 28.8037 45.9033 28.551C45.749 28.2984 45.6718 28.005 45.6718 27.6708C45.6718 27.4427 45.7059 27.1737 45.7741 26.864C45.8422 26.5543 45.9266 26.2507 46.027 25.9532C46.1275 25.6557 46.2333 25.4092 46.3446 25.2136C46.4558 25.018 46.5544 24.9202 46.6406 24.9202C46.6908 24.9202 46.7644 24.9487 46.8613 25.0058C46.9581 25.0628 47.0425 25.1321 47.1142 25.2136C47.0353 25.344 46.9402 25.5477 46.829 25.8249C46.7177 26.1019 46.6191 26.3974 46.533 26.7111C46.4468 27.0249 46.4038 27.3122 46.4038 27.5731C46.4038 27.6138 46.4092 27.6974 46.4199 27.8236C46.4307 27.95 46.4594 28.0661 46.5061 28.1721C46.5527 28.278 46.6334 28.331 46.7483 28.331C46.8702 28.331 47.003 28.2556 47.1465 28.1048C47.29 27.9541 47.4353 27.7564 47.5824 27.5119C47.7295 27.2674 47.8713 27.0025 48.0076 26.7173C48.144 26.432 48.2695 26.159 48.3843 25.8982C48.4992 25.6374 48.5924 25.4173 48.6642 25.2381C48.7216 25.2462 48.7988 25.2646 48.8956 25.293C48.9925 25.3216 49.0786 25.3603 49.154 25.4092C49.2293 25.4581 49.267 25.5274 49.267 25.617C49.267 25.6415 49.2329 25.7434 49.1648 25.9227C49.0966 26.1019 49.0158 26.3179 48.9226 26.5706C48.8292 26.8233 48.7485 27.08 48.6804 27.3408C48.6122 27.6016 48.5781 27.8298 48.5781 28.0254C48.5781 28.1476 48.5996 28.2535 48.6427 28.3432C48.6858 28.4329 48.7682 28.4777 48.8902 28.4777C49.041 28.4777 49.2222 28.4003 49.4338 28.2454C49.6455 28.0906 49.8626 27.8644 50.0851 27.5669C50.3075 27.2695 50.5048 26.9169 50.6771 26.5095L50.8277 26.6439C50.6699 27.084 50.4671 27.4773 50.2196 27.8236C49.972 28.17 49.7065 28.441 49.4231 28.6366C49.1396 28.8322 48.8652 28.93 48.5996 28.93C48.3987 28.93 48.2444 28.8791 48.1368 28.7772C48.0291 28.6753 47.9556 28.5429 47.9161 28.3799C47.8766 28.2169 47.8569 28.0498 47.8569 27.8787C47.8569 27.8217 47.8587 27.7605 47.8623 27.6953C47.8659 27.6301 47.8713 27.5689 47.8785 27.5119C47.7564 27.7483 47.6219 27.9744 47.4748 28.1904C47.3277 28.4064 47.1734 28.5836 47.0119 28.7222C46.8505 28.8608 46.6801 28.93 46.5007 28.93ZM52.367 28.8811C52.1087 28.8811 51.9006 28.8037 51.7427 28.6488C51.5848 28.494 51.5059 28.2861 51.5059 28.0254C51.5059 27.7972 51.5561 27.5507 51.6566 27.2858C51.7571 27.0209 51.8594 26.7601 51.9634 26.5034C52.0675 26.2467 52.1195 26.0164 52.1195 25.8126C52.1195 25.6007 52.0602 25.4316 51.9418 25.3053C51.8234 25.179 51.6961 25.071 51.5598 24.9813C51.3947 25.4459 51.2171 25.8901 51.0269 26.3139C50.8368 26.7377 50.6807 27.0636 50.5587 27.2919L50.4188 26.9862C50.5192 26.7744 50.652 26.4707 50.817 26.0755C50.9821 25.6802 51.1399 25.234 51.2906 24.7369C51.2188 24.6554 51.183 24.5494 51.183 24.419C51.183 24.1989 51.2422 23.9992 51.3606 23.82C51.479 23.6407 51.5848 23.551 51.6782 23.551C51.7571 23.551 51.8127 23.6019 51.845 23.7038C51.8773 23.8057 51.8934 23.877 51.8934 23.9177C51.8934 23.9585 51.8755 24.0339 51.8396 24.144C51.8037 24.2539 51.7822 24.3293 51.775 24.3701C51.775 24.4678 51.8342 24.5595 51.9526 24.6452C52.071 24.7307 52.2038 24.8326 52.3509 24.9508C52.498 25.0689 52.629 25.2116 52.7437 25.3787C52.8586 25.5457 52.916 25.7597 52.916 26.0205C52.916 26.2649 52.8694 26.5095 52.7761 26.754C52.6828 26.9984 52.5895 27.2307 52.4962 27.4508C52.4029 27.6708 52.3563 27.8583 52.3563 28.0132C52.3563 28.1436 52.385 28.2291 52.4424 28.2699C52.4998 28.3106 52.5679 28.331 52.6469 28.331C52.8191 28.331 52.9985 28.2698 53.1851 28.1476C53.3717 28.0254 53.5529 27.8705 53.7287 27.683C53.9045 27.4956 54.0606 27.298 54.1969 27.0901C54.3333 26.8823 54.4373 26.6928 54.5091 26.5217L54.7243 26.7051C54.588 27.0555 54.3943 27.3978 54.1431 27.7319C53.892 28.0661 53.612 28.3412 53.3035 28.5572C52.9949 28.7731 52.6828 28.8811 52.367 28.8811ZM55.4886 29.1012C55.0365 29.1012 54.692 28.9626 54.4552 28.6855C54.2184 28.4084 54.1 28.0621 54.1 27.6464C54.1 27.2796 54.1807 26.8945 54.3422 26.4911C54.5036 26.0877 54.7207 25.7087 54.9934 25.3542C55.2661 24.9997 55.5657 24.7103 55.8922 24.4862C56.2187 24.2621 56.5434 24.15 56.8664 24.15C57.0457 24.15 57.2162 24.203 57.3776 24.309C57.5391 24.4149 57.6198 24.6268 57.6198 24.9446C57.6198 25.2544 57.5391 25.5457 57.3776 25.8187C57.2162 26.0917 57.0045 26.3342 56.7426 26.5461C56.4806 26.7581 56.19 26.9312 55.8706 27.0657C55.5514 27.2002 55.2338 27.2837 54.9181 27.3163C54.9109 27.3652 54.9037 27.4141 54.8966 27.463C54.8894 27.5119 54.8858 27.5771 54.8858 27.6586C54.8858 27.7238 54.8947 27.8114 54.9127 27.9214C54.9306 28.0315 54.9665 28.1415 55.0203 28.2516C55.0741 28.3615 55.1584 28.4532 55.2733 28.5266C55.3881 28.5999 55.5388 28.6366 55.7254 28.6366C56.0267 28.6366 56.33 28.5389 56.6349 28.3432C56.9399 28.1476 57.2251 27.8889 57.4906 27.5669C57.7561 27.245 57.9786 26.8885 58.158 26.4972L58.341 26.6684C58.1473 27.1574 57.8997 27.5832 57.5983 27.9459C57.2969 28.3086 56.965 28.5918 56.6026 28.7956C56.2403 28.9993 55.8689 29.1012 55.4886 29.1012ZM55.015 26.9374C55.2015 26.8966 55.4132 26.8131 55.65 26.6867C55.8868 26.5604 56.1128 26.4015 56.3281 26.2099C56.5434 26.0184 56.721 25.8086 56.861 25.5803C57.0009 25.3521 57.0709 25.1199 57.0709 24.8835C57.0709 24.7939 57.0565 24.7287 57.0278 24.688C56.9991 24.6472 56.9488 24.6268 56.8771 24.6268C56.7049 24.6268 56.5273 24.6981 56.3443 24.8407C56.1613 24.9834 55.9819 25.1667 55.8061 25.3908C55.6303 25.615 55.4742 25.8636 55.3379 26.1366C55.2015 26.4096 55.0939 26.6765 55.015 26.9374ZM61.5379 28.9178C61.2365 28.9178 61.0105 28.8139 60.8598 28.6061C60.7091 28.3983 60.6338 28.1435 60.6338 27.842C60.6338 27.6546 60.6625 27.4182 60.7199 27.1329C60.7773 26.8477 60.858 26.5482 60.9621 26.2344C61.0661 25.9206 61.1863 25.6252 61.3227 25.3481C61.459 25.071 61.6043 24.8448 61.7586 24.6696C61.9128 24.4944 62.0653 24.4068 62.2161 24.4068C62.295 24.4068 62.3649 24.4352 62.4259 24.4923C62.487 24.5494 62.5174 24.6309 62.5174 24.7369C62.5174 24.8428 62.4618 25.0017 62.3506 25.2136C62.2394 25.4255 62.1084 25.672 61.9577 25.9532C61.807 26.2344 61.676 26.5258 61.5649 26.8273C61.4536 27.1289 61.398 27.4182 61.398 27.6953C61.398 27.9642 61.4411 28.1436 61.5272 28.2332C61.6133 28.3229 61.7388 28.3677 61.9039 28.3677C62.1479 28.3677 62.4116 28.2291 62.6951 27.952C62.9785 27.6749 63.2745 27.19 63.5831 26.4972L63.723 26.6684C63.4862 27.3856 63.1722 27.9398 62.7812 28.331C62.3901 28.7222 61.9756 28.9178 61.5379 28.9178ZM62.8189 23.3676C62.6897 23.3676 62.573 23.3309 62.469 23.2576C62.3649 23.1842 62.3129 23.0742 62.3129 22.9275C62.3129 22.7319 62.4044 22.5669 62.5874 22.4324C62.7704 22.2979 62.9588 22.2307 63.1525 22.2307C63.2745 22.2307 63.375 22.2633 63.4539 22.3285C63.5328 22.3937 63.5723 22.5037 63.5723 22.6586C63.5723 22.8297 63.4934 22.9907 63.3355 23.1414C63.1776 23.2922 63.0054 23.3676 62.8189 23.3676ZM64.5411 29.1867C64.1894 29.1867 63.9078 29.1032 63.6961 28.9361C63.4844 28.7691 63.3337 28.5592 63.244 28.3066C63.1543 28.0539 63.1094 27.7972 63.1094 27.5363C63.1094 27.3 63.1381 27.1166 63.1956 26.9862C63.253 26.8559 63.3247 26.758 63.4109 26.6928C63.497 26.6276 63.5777 26.5787 63.653 26.5461C63.7284 26.5135 63.7804 26.4809 63.8091 26.4483C64.0029 26.212 64.193 25.9512 64.3796 25.6659C64.5662 25.3807 64.7277 25.071 64.864 24.7369V24.6024C64.864 24.2845 64.9106 24.0604 65.0039 23.9299C65.0972 23.7995 65.2048 23.7343 65.3268 23.7343C65.4058 23.7343 65.4632 23.7568 65.499 23.8016C65.535 23.8464 65.5529 23.8974 65.5529 23.9545C65.5529 23.9952 65.5439 24.0523 65.5259 24.1256C65.508 24.1989 65.499 24.2967 65.499 24.419C65.499 24.6716 65.5493 24.9548 65.6497 25.2686C65.7502 25.5824 65.8507 25.9145 65.9511 26.265C66.0516 26.6154 66.1018 26.974 66.1018 27.3408C66.1018 27.4467 66.0983 27.5425 66.091 27.628C66.0839 27.7137 66.0695 27.7972 66.048 27.8787C66.2848 27.8217 66.5109 27.6851 66.7262 27.4691C66.9414 27.2532 67.1495 26.9292 67.3504 26.4972L67.4688 26.6073C67.3325 27.0718 67.1334 27.4365 66.8715 27.7014C66.6095 27.9663 66.3099 28.1273 65.9726 28.1843C65.8578 28.5266 65.6713 28.7792 65.4129 28.9423C65.1546 29.1052 64.864 29.1867 64.5411 29.1867ZM64.498 28.6855C64.62 28.6855 64.7456 28.6468 64.8748 28.5694C65.0039 28.4919 65.1079 28.3595 65.1869 28.1721C64.8855 28.0987 64.6182 27.9663 64.385 27.7747C64.1518 27.5833 63.9706 27.3855 63.8414 27.1818C63.7266 27.2063 63.6692 27.3285 63.6692 27.5486C63.6692 27.8257 63.7392 28.0845 63.8791 28.3249C64.019 28.5653 64.2253 28.6855 64.498 28.6855ZM65.2622 27.8542C65.2766 27.789 65.2856 27.7157 65.2891 27.6341C65.2928 27.5526 65.2945 27.4793 65.2945 27.4141C65.2874 27.0392 65.2443 26.6704 65.1653 26.3077C65.0864 25.9451 65.0111 25.5803 64.9393 25.2136C64.7958 25.4907 64.6362 25.7739 64.4603 26.0633C64.2845 26.3526 64.1213 26.5868 63.9706 26.7662C64.0782 27.0025 64.245 27.2226 64.4711 27.4263C64.6971 27.6301 64.9608 27.7727 65.2622 27.8542ZM72.022 29.6269C71.5699 29.6269 71.1771 29.5229 70.8434 29.3151C70.5097 29.1073 70.2514 28.8322 70.0684 28.49C69.8854 28.1476 69.7939 27.7686 69.7939 27.353C69.7939 26.9862 69.8638 26.6276 70.0038 26.2772C70.1437 25.9267 70.3393 25.6048 70.5904 25.3114C70.8416 25.018 71.134 24.7735 71.4677 24.5779C71.8014 24.3823 72.1656 24.256 72.5603 24.1989C72.2947 23.9381 72.0956 23.6447 71.9628 23.3187C71.8301 22.9927 71.7637 22.6586 71.7637 22.3162C71.7637 21.8843 71.8606 21.4747 72.0543 21.0876C72.2481 20.7005 72.519 20.3847 72.867 20.1402C73.2151 19.8957 73.6151 19.7734 74.0672 19.7734C74.4906 19.7734 74.8153 19.8916 75.0413 20.1279C75.2673 20.3643 75.3804 20.7066 75.3804 21.1549C75.3804 21.4646 75.332 21.7641 75.2351 22.0534C75.1382 22.3428 75.0198 22.5771 74.8799 22.7564C74.7399 22.9357 74.6054 23.0253 74.4762 23.0253C74.383 23.0253 74.295 22.9785 74.2125 22.8847C74.13 22.791 74.06 22.683 74.0026 22.5608C74.2609 22.3081 74.4816 22.0432 74.6646 21.7661C74.8476 21.489 74.9391 21.1997 74.9391 20.8981C74.9391 20.6537 74.8691 20.4662 74.7292 20.3358C74.5892 20.2054 74.4009 20.1402 74.1641 20.1402C73.8412 20.1402 73.5667 20.2522 73.3406 20.4764C73.1146 20.7005 72.9459 20.9898 72.8347 21.3444C72.7235 21.6989 72.6679 22.0718 72.6679 22.463C72.6679 22.7971 72.7181 23.1394 72.8186 23.4899C72.919 23.8403 73.1128 24.1419 73.3998 24.3945C72.8975 24.4842 72.4598 24.6879 72.0866 25.0058C71.7135 25.3236 71.4247 25.6945 71.2201 26.1182C71.0156 26.5421 70.9133 26.9618 70.9133 27.3774C70.9133 27.6301 70.9582 27.8929 71.0479 28.166C71.1376 28.439 71.2847 28.6672 71.4892 28.8506C71.6937 29.034 71.9682 29.1256 72.3127 29.1256C72.7002 29.1256 73.0841 29.0013 73.4644 28.7528C73.8447 28.5042 74.1928 28.1782 74.5085 27.7747C74.8243 27.3713 75.079 26.9374 75.2727 26.4728L75.5203 26.6562C75.2548 27.2185 74.9462 27.7238 74.5946 28.1721C74.243 28.6203 73.8519 28.9749 73.4213 29.2356C72.9908 29.4965 72.5244 29.6269 72.022 29.6269ZM76.2523 29.0401C76.0011 29.0401 75.8271 28.9076 75.7302 28.6427C75.6333 28.3778 75.5849 28.0335 75.5849 27.6097C75.5849 27.5445 75.5885 27.3958 75.5957 27.1635C75.6029 26.9313 75.6136 26.5787 75.628 26.1061C75.6423 25.8696 75.6674 25.7087 75.7033 25.6231C75.7392 25.5376 75.8432 25.4948 76.0155 25.4948C76.1734 25.4948 76.2684 25.5295 76.3007 25.5987C76.333 25.668 76.3492 25.8086 76.3492 26.0205C76.3492 26.2731 76.3384 26.5523 76.3168 26.8579C76.2953 27.1635 76.2846 27.4549 76.2846 27.7319C76.2846 27.9765 76.2972 28.1578 76.3222 28.276C76.3474 28.3941 76.403 28.4532 76.4891 28.4532C76.6183 28.4532 76.76 28.3718 76.9143 28.2088C77.0685 28.0457 77.2246 27.8359 77.3825 27.5791C77.5404 27.3224 77.6911 27.0453 77.8346 26.7479C77.9781 26.4504 78.1037 26.1671 78.2113 25.8982C78.2256 25.344 78.2813 24.9732 78.3781 24.7858C78.475 24.5983 78.5988 24.5046 78.7495 24.5046C78.9145 24.5046 79.0294 24.5657 79.094 24.688C79.1585 24.8102 79.1908 24.9202 79.1908 25.018C79.1908 25.1321 79.1604 25.2421 79.0993 25.3481C79.0383 25.4541 78.9792 25.5967 78.9217 25.776C78.8643 25.9553 78.8356 26.2202 78.8356 26.5706C78.8356 26.6928 78.8446 26.8233 78.8625 26.9618C78.8805 27.1003 78.9235 27.2165 78.9917 27.3102C79.0599 27.4039 79.1657 27.4508 79.3092 27.4508C79.4528 27.4508 79.5927 27.3836 79.729 27.2491C79.8654 27.1146 80.0053 26.8803 80.1488 26.5461L80.278 26.6684C80.1129 27.1003 79.9317 27.3999 79.7344 27.5669C79.5371 27.734 79.3451 27.8175 79.1585 27.8175C78.9217 27.8175 78.728 27.7116 78.5773 27.4997C78.4266 27.2878 78.319 27.0066 78.2543 26.6562C78.0822 27.0392 77.883 27.4121 77.657 27.7747C77.4309 28.1374 77.1977 28.439 76.9573 28.6794C76.7169 28.9198 76.4819 29.0401 76.2523 29.0401ZM81.1068 29.1012C80.6547 29.1012 80.3103 28.9626 80.0735 28.6855C79.8367 28.4084 79.7183 28.0621 79.7183 27.6464C79.7183 27.2796 79.799 26.8945 79.9605 26.4911C80.1219 26.0877 80.339 25.7087 80.6117 25.3542C80.8844 24.9997 81.184 24.7103 81.5105 24.4862C81.837 24.2621 82.1617 24.15 82.4846 24.15C82.664 24.15 82.8344 24.203 82.9959 24.309C83.1574 24.4149 83.2381 24.6268 83.2381 24.9446C83.2381 25.2544 83.1574 25.5457 82.9959 25.8187C82.8344 26.0917 82.6228 26.3342 82.3608 26.5461C82.0989 26.7581 81.8083 26.9312 81.4889 27.0657C81.1696 27.2002 80.8521 27.2837 80.5363 27.3163C80.5291 27.3652 80.522 27.4141 80.5148 27.463C80.5076 27.5119 80.5041 27.5771 80.5041 27.6586C80.5041 27.7238 80.513 27.8114 80.531 27.9214C80.5489 28.0315 80.5848 28.1415 80.6386 28.2516C80.6924 28.3615 80.7767 28.4532 80.8915 28.5266C81.0064 28.5999 81.157 28.6366 81.3436 28.6366C81.645 28.6366 81.9482 28.5389 82.2532 28.3432C82.5582 28.1476 82.8434 27.8889 83.1089 27.5669C83.3744 27.245 83.5969 26.8885 83.7763 26.4972L83.9593 26.6684C83.7655 27.1574 83.518 27.5832 83.2165 27.9459C82.9152 28.3086 82.5833 28.5918 82.2209 28.7956C81.8585 28.9993 81.4872 29.1012 81.1068 29.1012ZM80.6332 26.9374C80.8198 26.8966 81.0315 26.8131 81.2683 26.6867C81.5051 26.5604 81.7311 26.4015 81.9464 26.2099C82.1617 26.0184 82.3393 25.8086 82.4792 25.5803C82.6191 25.3521 82.6892 25.1199 82.6892 24.8835C82.6892 24.7939 82.6748 24.7287 82.6461 24.688C82.6174 24.6472 82.5671 24.6268 82.4954 24.6268C82.3232 24.6268 82.1455 24.6981 81.9626 24.8407C81.7796 24.9834 81.6002 25.1667 81.4244 25.3908C81.2486 25.615 81.0925 25.8636 80.9562 26.1366C80.8198 26.4096 80.7122 26.6765 80.6332 26.9374ZM85.477 28.8811C85.2187 28.8811 85.0106 28.8037 84.8527 28.6488C84.6948 28.494 84.6159 28.2861 84.6159 28.0254C84.6159 27.7972 84.6661 27.5507 84.7666 27.2858C84.867 27.0209 84.9693 26.7601 85.0734 26.5034C85.1774 26.2467 85.2294 26.0164 85.2294 25.8126C85.2294 25.6007 85.1702 25.4316 85.0518 25.3053C84.9334 25.179 84.8061 25.071 84.6697 24.9813C84.5046 25.4459 84.3271 25.8901 84.1369 26.3139C83.9467 26.7377 83.7907 27.0636 83.6687 27.2919L83.5287 26.9862C83.6292 26.7744 83.762 26.4707 83.927 26.0755C84.092 25.6802 84.2499 25.234 84.4006 24.7369C84.3288 24.6554 84.293 24.5494 84.293 24.419C84.293 24.1989 84.3522 23.9992 84.4706 23.82C84.589 23.6407 84.6948 23.551 84.7881 23.551C84.867 23.551 84.9226 23.6019 84.955 23.7038C84.9873 23.8057 85.0034 23.877 85.0034 23.9177C85.0034 23.9585 84.9854 24.0339 84.9496 24.144C84.9137 24.2539 84.8922 24.3293 84.885 24.3701C84.885 24.4678 84.9442 24.5595 85.0626 24.6452C85.181 24.7307 85.3138 24.8326 85.4609 24.9508C85.608 25.0689 85.739 25.2116 85.8537 25.3787C85.9685 25.5457 86.026 25.7597 86.026 26.0205C86.026 26.2649 85.9793 26.5095 85.8861 26.754C85.7927 26.9984 85.6995 27.2307 85.6061 27.4508C85.5129 27.6708 85.4662 27.8583 85.4662 28.0132C85.4662 28.1436 85.495 28.2291 85.5524 28.2699C85.6098 28.3106 85.6779 28.331 85.7569 28.331C85.9291 28.331 86.1085 28.2698 86.295 28.1476C86.4816 28.0254 86.6628 27.8705 86.8387 27.683C87.0145 27.4956 87.1705 27.298 87.3069 27.0901C87.4432 26.8823 87.5473 26.6928 87.6191 26.5217L87.8343 26.7051C87.698 27.0555 87.5042 27.3978 87.2531 27.7319C87.0019 28.0661 86.722 28.3412 86.4134 28.5572C86.1049 28.7731 85.7927 28.8811 85.477 28.8811Z" fill="#185D3D" stroke="#185D3D" stroke-width="0.0461486" stroke-miterlimit="22.9256" stroke-linecap="round" stroke-linejoin="round"/>
<path d="M87.8777 31.9864C87.6983 31.9864 87.535 31.9253 87.3879 31.803C87.2408 31.6808 87.1672 31.4934 87.1672 31.2407C87.1672 30.9799 87.2319 30.7455 87.361 30.5378C87.4902 30.3299 87.6588 30.1404 87.8669 29.9692C88.075 29.7981 88.3028 29.6392 88.5504 29.4925C88.798 29.3458 89.0438 29.2031 89.2878 29.0646C89.3739 28.812 89.4672 28.5022 89.5676 28.1355C89.6681 27.7687 89.7578 27.4061 89.8367 27.0475C89.6143 27.4224 89.3756 27.7504 89.1209 28.0316C88.8662 28.3127 88.5845 28.4533 88.276 28.4533C88.1468 28.4533 88.0122 28.4228 87.8723 28.3616C87.7323 28.3006 87.6158 28.1946 87.5225 28.0438C87.4292 27.893 87.3825 27.6954 87.3825 27.4509C87.3825 27.2308 87.4166 26.97 87.4848 26.6685C87.553 26.3669 87.6391 26.0736 87.7431 25.7883C87.8472 25.5031 87.9548 25.2647 88.066 25.0731C88.1773 24.8816 88.2759 24.7859 88.3621 24.7859C88.3979 24.7859 88.4553 24.8021 88.5343 24.8347C88.6132 24.8673 88.6904 24.9122 88.7657 24.9692C88.8411 25.0263 88.8859 25.0874 88.9002 25.1526C88.8357 25.2504 88.7639 25.393 88.685 25.5805C88.606 25.7679 88.5307 25.9757 88.4589 26.204C88.3871 26.4321 88.328 26.6563 88.2813 26.8763C88.2347 27.0964 88.2113 27.2838 88.2113 27.4387C88.2113 27.5691 88.2347 27.6791 88.2813 27.7687C88.328 27.8584 88.4159 27.9032 88.545 27.9032C88.6957 27.9032 88.8554 27.8299 89.024 27.6832C89.1927 27.5364 89.3595 27.347 89.5246 27.1147C89.6896 26.8825 89.8367 26.644 89.9659 26.3995C89.9874 26.3262 90.0054 26.2345 90.0197 26.1245C90.0341 26.0145 90.0556 25.8983 90.0843 25.7761C90.113 25.6457 90.1722 25.5173 90.2619 25.391C90.3516 25.2647 90.479 25.2015 90.644 25.2015C90.6943 25.2015 90.7427 25.2056 90.7893 25.2137C90.836 25.2219 90.8916 25.2341 90.9561 25.2504C90.9561 25.3727 90.9185 25.611 90.8431 25.9656C90.7678 26.3201 90.6691 26.7317 90.5472 27.2003C90.4251 27.6689 90.2852 28.1396 90.1273 28.6123C90.4431 28.4738 90.7624 28.2394 91.0853 27.9093C91.4082 27.5792 91.6702 27.1249 91.8711 26.5462L92.0433 26.693C91.9357 27.1004 91.7724 27.453 91.5536 27.7504C91.3347 28.0479 91.0889 28.3006 90.8162 28.5084C90.5435 28.7162 90.2709 28.8894 89.9982 29.028C89.8044 29.5577 89.5963 30.0488 89.3739 30.5011C89.1514 30.9534 88.9164 31.314 88.6688 31.583C88.4212 31.8519 88.1576 31.9864 87.8777 31.9864ZM87.7916 31.5586C87.9208 31.5586 88.1091 31.3955 88.3567 31.0695C88.6043 30.7435 88.8572 30.2301 89.1155 29.5292C88.8644 29.6759 88.6204 29.8369 88.3836 30.012C88.1468 30.1873 87.9495 30.3727 87.7916 30.5683C87.6337 30.7639 87.5548 30.9758 87.5548 31.204C87.5548 31.2774 87.5727 31.3548 87.6085 31.4363C87.6445 31.5178 87.7055 31.5586 87.7916 31.5586ZM92.603 29.1258C92.2873 29.1258 92.0379 29.0218 91.8549 28.814C91.6719 28.6062 91.5805 28.2904 91.5805 27.8665C91.5805 27.5243 91.6379 27.1004 91.7527 26.5952C91.8675 26.0899 92.011 25.5682 92.1833 25.0303C92.1258 25.014 92.063 24.9998 91.9948 24.9876C91.9267 24.9753 91.8639 24.953 91.8065 24.9204V24.5903C91.8998 24.6066 91.9841 24.6187 92.0595 24.6269C92.1348 24.635 92.2155 24.6432 92.3017 24.6513C92.4523 24.2195 92.6156 23.7997 92.7914 23.3922C92.9672 22.9847 93.1412 22.622 93.3135 22.3042C93.4857 21.9863 93.6507 21.7336 93.8086 21.5462C93.9665 21.3588 94.1028 21.265 94.2176 21.265C94.2894 21.265 94.3539 21.2935 94.4114 21.3506C94.4688 21.4077 94.4975 21.4892 94.4975 21.5951C94.4975 21.7499 94.4239 21.9802 94.2768 22.2858C94.1297 22.5914 93.9467 22.9501 93.7278 23.3617C93.509 23.7732 93.2991 24.2153 93.0982 24.6881C93.1556 24.6881 93.2148 24.6881 93.2758 24.6881C93.3368 24.6881 93.396 24.6881 93.4534 24.6881C93.7404 24.6881 94.0131 24.6819 94.2714 24.6697C94.5297 24.6575 94.7917 24.635 95.0572 24.6025V24.9448C94.6625 24.9937 94.3019 25.0303 93.9754 25.0548C93.6489 25.0792 93.3458 25.0915 93.0659 25.0915C93.0443 25.0915 93.021 25.0915 92.9959 25.0915C92.9708 25.0915 92.9475 25.0915 92.9259 25.0915C92.768 25.5071 92.6335 25.9309 92.5223 26.3629C92.4111 26.7948 92.3554 27.2145 92.3554 27.6221C92.3554 27.9644 92.4021 28.2068 92.4954 28.3495C92.5887 28.4921 92.7394 28.5634 92.9475 28.5634C93.3063 28.5634 93.6722 28.376 94.0454 28.001C94.4186 27.6261 94.7415 27.1209 95.0141 26.4851L95.1649 26.6074C94.9854 27.0801 94.7594 27.508 94.4868 27.891C94.214 28.2741 93.918 28.5756 93.5987 28.7957C93.2794 29.0157 92.9475 29.1258 92.603 29.1258ZM95.2294 29.028C95.0787 29.028 94.9675 28.8914 94.8957 28.6184C94.824 28.3454 94.7881 28.0336 94.7881 27.6832C94.7881 27.3001 94.8455 26.8437 94.9603 26.314C95.0751 25.7842 95.2258 25.2239 95.4124 24.6331C95.599 24.0421 95.8089 23.4635 96.0421 22.8971C96.2753 22.3306 96.5157 21.8172 96.7633 21.3567C97.0109 20.8962 97.2459 20.5274 97.4683 20.2504C97.6908 19.9732 97.8845 19.8347 98.0496 19.8347C98.1931 19.8347 98.3007 19.9264 98.3725 20.1098C98.4443 20.2931 98.4801 20.4785 98.4801 20.666C98.4801 20.8942 98.4353 21.1693 98.3455 21.4912C98.2559 21.8131 98.1321 22.1575 97.9742 22.5242C97.8164 22.891 97.6316 23.2537 97.4199 23.6122C97.2082 23.9709 96.9803 24.2968 96.7363 24.5903C96.4924 24.8836 96.2376 25.12 95.9721 25.2993C95.886 25.5601 95.8143 25.8189 95.7569 26.0756C95.6995 26.3323 95.6581 26.5789 95.6331 26.8152C95.6079 27.0515 95.5954 27.2757 95.5954 27.4876C95.5954 27.5447 95.5972 27.5997 95.6008 27.6526C95.6044 27.7056 95.6098 27.7524 95.6169 27.7932C95.6672 27.6465 95.7336 27.453 95.816 27.2126C95.8986 26.9721 95.9991 26.7174 96.1175 26.4484C96.2359 26.1795 96.3758 25.9228 96.5372 25.6783C96.6987 25.4337 96.8834 25.2361 97.0916 25.0854C97.2997 24.9346 97.5293 24.8592 97.7804 24.8592C98.0101 24.8592 98.1913 24.9183 98.324 25.0365C98.4568 25.1546 98.5501 25.3034 98.6039 25.4827C98.6577 25.662 98.6846 25.8454 98.6846 26.0328C98.6846 26.2854 98.647 26.5279 98.5716 26.7602C98.4963 26.9925 98.4209 27.2125 98.3455 27.4203C98.2702 27.6281 98.2325 27.8258 98.2325 28.0133C98.2325 28.16 98.2612 28.2659 98.3187 28.3311C98.3761 28.3963 98.4478 28.4289 98.534 28.4289C98.6918 28.4289 98.8766 28.3393 99.0883 28.16C99.3 27.9807 99.5081 27.7422 99.7126 27.4448C99.9171 27.1473 100.095 26.8192 100.245 26.4607L100.407 26.6441C100.249 27.0515 100.059 27.4224 99.8364 27.7566C99.6139 28.0907 99.3717 28.3576 99.1098 28.5573C98.8479 28.757 98.5698 28.8568 98.2756 28.8568C98.0101 28.8568 97.8091 28.7773 97.6728 28.6184C97.5365 28.4595 97.4683 28.2618 97.4683 28.0255C97.4683 27.8543 97.4953 27.6649 97.549 27.457C97.6029 27.2492 97.6549 27.0373 97.7051 26.8213C97.7554 26.6053 97.7804 26.4077 97.7804 26.2284C97.7804 26.0328 97.7428 25.8942 97.6674 25.8127C97.5921 25.7312 97.5006 25.6905 97.393 25.6905C97.2136 25.6905 97.0521 25.772 96.9086 25.935C96.7651 26.098 96.6341 26.3059 96.5157 26.5585C96.3973 26.8111 96.2879 27.078 96.1874 27.3592C96.0869 27.6404 95.9883 27.9093 95.8914 28.1661C95.7945 28.4228 95.6922 28.6307 95.5846 28.7896C95.477 28.9485 95.3586 29.028 95.2294 29.028ZM96.1766 24.6147C96.3632 24.4272 96.5462 24.2011 96.7256 23.9362C96.905 23.6713 97.0719 23.3922 97.2261 23.0988C97.3804 22.8054 97.5149 22.5201 97.6298 22.243C97.7446 21.9659 97.8361 21.7174 97.9042 21.4973C97.9724 21.2772 98.0101 21.1061 98.0173 20.9839C98.0173 20.9676 98.0155 20.9553 98.0119 20.9472C98.0083 20.939 98.0029 20.935 97.9957 20.935C97.9527 20.935 97.8594 21.0388 97.7159 21.2467C97.5723 21.4545 97.4055 21.7336 97.2153 22.0841C97.0252 22.4346 96.8368 22.8298 96.6502 23.27C96.4637 23.71 96.3058 24.1583 96.1766 24.6147ZM100.816 28.9179C100.515 28.9179 100.289 28.814 100.138 28.6062C99.9871 28.3984 99.9118 28.1437 99.9118 27.8421C99.9118 27.6547 99.9405 27.4183 99.9979 27.133C100.055 26.8478 100.136 26.5483 100.24 26.2345C100.344 25.9207 100.464 25.6253 100.601 25.3482C100.737 25.0711 100.882 24.845 101.037 24.6697C101.191 24.4945 101.343 24.4069 101.494 24.4069C101.573 24.4069 101.643 24.4354 101.704 24.4924C101.765 24.5495 101.795 24.631 101.795 24.737C101.795 24.8429 101.74 25.0018 101.629 25.2137C101.517 25.4256 101.386 25.6722 101.236 25.9533C101.085 26.2345 100.954 26.5259 100.843 26.8274C100.732 27.129 100.676 27.4183 100.676 27.6954C100.676 27.9644 100.719 28.1437 100.805 28.2333C100.891 28.323 101.017 28.3678 101.182 28.3678C101.426 28.3678 101.69 28.2292 101.973 27.9521C102.256 27.6751 102.553 27.1901 102.861 26.4973L103.001 26.6685C102.764 27.3857 102.45 27.9399 102.059 28.3311C101.668 28.7223 101.254 28.9179 100.816 28.9179ZM102.097 23.3677C101.968 23.3677 101.851 23.331 101.747 23.2577C101.643 23.1843 101.591 23.0743 101.591 22.9276C101.591 22.732 101.682 22.567 101.865 22.4325C102.048 22.2981 102.237 22.2308 102.43 22.2308C102.553 22.2308 102.653 22.2634 102.732 22.3286C102.811 22.3938 102.85 22.5038 102.85 22.6587C102.85 22.8298 102.771 22.9908 102.614 23.1416C102.456 23.2923 102.283 23.3677 102.097 23.3677ZM106.176 28.8079C105.911 28.8079 105.708 28.7305 105.568 28.5756C105.428 28.4207 105.358 28.2252 105.358 27.9888C105.358 27.8176 105.383 27.6404 105.434 27.457C105.484 27.2736 105.534 27.0862 105.584 26.8946C105.635 26.7031 105.66 26.5177 105.66 26.3384C105.66 26.1428 105.62 26.0084 105.541 25.935C105.462 25.8616 105.369 25.825 105.261 25.825C105.046 25.825 104.825 25.9269 104.599 26.1306C104.373 26.3343 104.153 26.589 103.937 26.8946C103.722 27.2003 103.521 27.5201 103.335 27.8543C103.148 28.1885 102.987 28.4859 102.85 28.7468C102.721 28.7468 102.599 28.7224 102.484 28.6735C102.37 28.6245 102.273 28.539 102.194 28.4167C102.201 28.376 102.242 28.2517 102.317 28.0438C102.393 27.836 102.477 27.5834 102.57 27.2859C102.664 26.9884 102.748 26.6807 102.823 26.3629C102.899 26.045 102.936 25.7516 102.936 25.4827C102.987 25.4256 103.062 25.3645 103.162 25.2993C103.263 25.2341 103.367 25.2015 103.475 25.2015C103.704 25.2015 103.819 25.3197 103.819 25.556C103.819 25.662 103.797 25.8311 103.754 26.0634C103.711 26.2957 103.654 26.5503 103.582 26.8274C103.769 26.5259 103.977 26.2345 104.207 25.9533C104.436 25.6722 104.677 25.4419 104.928 25.2626C105.179 25.0833 105.434 24.9937 105.692 24.9937C105.986 24.9937 106.203 25.1098 106.343 25.3421C106.483 25.5743 106.553 25.8331 106.553 26.1183C106.553 26.3629 106.517 26.5931 106.445 26.8091C106.374 27.0251 106.304 27.2288 106.236 27.4203C106.167 27.6118 106.133 27.8013 106.133 27.9888C106.133 28.1274 106.16 28.2272 106.214 28.2883C106.268 28.3495 106.334 28.38 106.413 28.38C106.585 28.38 106.763 28.2843 106.946 28.0927C107.129 27.9012 107.305 27.6607 107.473 27.3714C107.642 27.0821 107.791 26.7908 107.92 26.4973L108.082 26.6563C107.931 27.0557 107.762 27.4183 107.576 27.7443C107.389 28.0703 107.181 28.329 106.951 28.5206C106.722 28.7121 106.463 28.8079 106.176 28.8079ZM108.168 31.9864C107.995 31.9864 107.836 31.9273 107.689 31.8091C107.542 31.691 107.468 31.4974 107.468 31.2285C107.468 30.9758 107.534 30.7455 107.667 30.5378C107.8 30.3299 107.974 30.1384 108.189 29.9631C108.404 29.788 108.638 29.627 108.889 29.4803C109.14 29.3335 109.38 29.195 109.61 29.0646C109.696 28.8201 109.779 28.5593 109.858 28.2822C109.937 28.0051 110.012 27.6995 110.084 27.3653C109.825 27.7565 109.554 28.0805 109.271 28.3372C108.988 28.5939 108.699 28.7224 108.404 28.7224C108.132 28.7224 107.915 28.6102 107.753 28.3861C107.592 28.162 107.511 27.8665 107.511 27.4998C107.511 27.0678 107.606 26.6624 107.796 26.2834C107.986 25.9044 108.23 25.5662 108.528 25.2687C108.826 24.9712 109.145 24.739 109.486 24.5719C109.827 24.4048 110.148 24.3213 110.45 24.3213C110.672 24.3213 110.837 24.3661 110.945 24.4558C111.052 24.5454 111.106 24.6473 111.106 24.7614C111.106 24.851 111.083 24.9223 111.036 24.9753C110.99 25.0283 110.959 25.0589 110.945 25.067C110.887 24.9855 110.821 24.9305 110.746 24.902C110.67 24.8734 110.582 24.8592 110.482 24.8592C110.202 24.8592 109.933 24.9488 109.675 25.1281C109.416 25.3074 109.187 25.5397 108.986 25.825C108.785 26.1102 108.627 26.4056 108.512 26.7112C108.397 27.0169 108.34 27.296 108.34 27.5487C108.34 27.7198 108.372 27.8523 108.437 27.946C108.501 28.0397 108.584 28.0866 108.684 28.0866C108.892 28.0866 109.14 27.9338 109.427 27.6281C109.714 27.3225 109.99 26.9537 110.256 26.5218C110.277 26.4403 110.294 26.3669 110.304 26.3017C110.315 26.2365 110.328 26.1632 110.342 26.0817C110.399 25.8291 110.475 25.6273 110.568 25.4765C110.661 25.3258 110.798 25.2504 110.977 25.2504C111.013 25.2504 111.056 25.2524 111.106 25.2565C111.156 25.2605 111.21 25.2708 111.268 25.2871C111.268 25.4338 111.232 25.6762 111.16 26.0145C111.088 26.3527 110.991 26.7459 110.869 27.1942C110.747 27.6424 110.608 28.1029 110.45 28.5756C110.679 28.4615 110.907 28.3067 111.133 28.1111C111.359 27.9155 111.569 27.6832 111.763 27.4142C111.957 27.1453 112.104 26.8478 112.204 26.5218L112.376 26.7052C112.262 27.0801 112.086 27.4204 111.849 27.726C111.612 28.0316 111.356 28.2964 111.079 28.5206C110.803 28.7447 110.55 28.9179 110.32 29.0402C110.12 29.5781 109.908 30.0711 109.685 30.5194C109.463 30.9676 109.226 31.3242 108.975 31.5891C108.724 31.854 108.455 31.9864 108.168 31.9864ZM108.125 31.4852C108.261 31.4852 108.446 31.3384 108.679 31.0451C108.912 30.7517 109.165 30.2545 109.438 29.5536C109.165 29.7085 108.914 29.8654 108.684 30.0243C108.455 30.1832 108.268 30.3523 108.125 30.5316C107.981 30.7109 107.909 30.9024 107.909 31.1062C107.909 31.2203 107.931 31.312 107.974 31.3812C108.017 31.4506 108.067 31.4852 108.125 31.4852Z" fill="#185D3D" stroke="#185D3D" stroke-width="0.0461486" stroke-miterlimit="22.9256" stroke-linecap="round" stroke-linejoin="round"/>
</svg>
