<svg width="26" height="26" viewBox="0 0 26 26" fill="none" xmlns="http://www.w3.org/2000/svg">
<g clip-path="url(#clip0_789_11598)">
<path d="M21.0587 2.00052H20.1156V1.04626C20.1156 0.501043 19.6737 0.059082 19.1285 0.059082C18.5832 0.059082 18.1413 0.501043 18.1413 1.04626V2.00052H8.45571V1.04626C8.45571 0.501043 8.01375 0.059082 7.46853 0.059082C6.92331 0.059082 6.48135 0.501043 6.48135 1.04626V2.00052H5.53834C2.84675 2.00052 0.656982 4.19029 0.656982 6.88183V20.4496C0.656982 23.1411 2.84675 25.3309 5.53834 25.3309H21.0588C23.7503 25.3309 25.9401 23.1411 25.9401 20.4496V6.88183C25.9401 4.19029 23.7503 2.00052 21.0587 2.00052ZM5.53834 3.97488H6.48135V5.89989C6.48135 6.44511 6.92331 6.88707 7.46853 6.88707C8.01375 6.88707 8.45571 6.44511 8.45571 5.89989V3.97488H18.1413V5.89989C18.1413 6.44511 18.5833 6.88707 19.1285 6.88707C19.6737 6.88707 20.1157 6.44511 20.1157 5.89989V3.97488H21.0588C22.6616 3.97488 23.9657 5.27895 23.9657 6.88183V7.82489H2.63134V6.88183C2.63134 5.27895 3.93541 3.97488 5.53834 3.97488ZM21.0587 23.3566H5.53834C3.93541 23.3566 2.63134 22.0525 2.63134 20.4496V9.79925H23.9657V20.4496C23.9657 22.0525 22.6616 23.3566 21.0587 23.3566ZM9.42646 13.6822C9.42646 14.2274 8.9845 14.6694 8.43927 14.6694H6.49784C5.95262 14.6694 5.51065 14.2274 5.51065 13.6822C5.51065 13.137 5.95262 12.695 6.49784 12.695H8.43927C8.98445 12.695 9.42646 13.137 9.42646 13.6822ZM21.0864 13.6822C21.0864 14.2274 20.6445 14.6694 20.0993 14.6694H18.1578C17.6126 14.6694 17.1706 14.2274 17.1706 13.6822C17.1706 13.137 17.6126 12.695 18.1578 12.695H20.0993C20.6444 12.695 21.0864 13.137 21.0864 13.6822ZM15.2508 13.6822C15.2508 14.2274 14.8089 14.6694 14.2636 14.6694H12.3222C11.777 14.6694 11.335 14.2274 11.335 13.6822C11.335 13.137 11.777 12.695 12.3222 12.695H14.2636C14.8088 12.695 15.2508 13.137 15.2508 13.6822ZM9.42646 19.5065C9.42646 20.0518 8.9845 20.4937 8.43927 20.4937H6.49784C5.95262 20.4937 5.51065 20.0518 5.51065 19.5065C5.51065 18.9613 5.95262 18.5194 6.49784 18.5194H8.43927C8.98445 18.5194 9.42646 18.9613 9.42646 19.5065ZM21.0864 19.5065C21.0864 20.0518 20.6445 20.4937 20.0993 20.4937H18.1578C17.6126 20.4937 17.1706 20.0518 17.1706 19.5065C17.1706 18.9613 17.6126 18.5194 18.1578 18.5194H20.0993C20.6444 18.5194 21.0864 18.9613 21.0864 19.5065ZM15.2508 19.5065C15.2508 20.0518 14.8089 20.4937 14.2636 20.4937H12.3222C11.777 20.4937 11.335 20.0518 11.335 19.5065C11.335 18.9613 11.777 18.5194 12.3222 18.5194H14.2636C14.8088 18.5194 15.2508 18.9613 15.2508 19.5065Z" fill="#8C8C8C"/>
</g>
<defs>
<clipPath id="clip0_789_11598">
<rect width="25.2831" height="25.2831" fill="white" transform="translate(0.657227 0.0537109)"/>
</clipPath>
</defs>
</svg>
