<svg width="136" height="115" viewBox="0 0 136 115" fill="none" xmlns="http://www.w3.org/2000/svg">
<path d="M98.7143 0H37.2857C34.0284 0.00357061 30.9056 1.30412 28.6023 3.61629C26.2991 5.92847 25.0036 9.06343 25 12.3333V61.6667C25.0036 64.9366 26.2991 68.0715 28.6023 70.3837C30.9056 72.6959 34.0284 73.9964 37.2857 74H98.7143C101.972 73.9964 105.094 72.6959 107.398 70.3837C109.701 68.0715 110.996 64.9366 111 61.6667V12.3333C110.996 9.06343 109.701 5.92847 107.398 3.61629C105.094 1.30412 101.972 0.00357061 98.7143 0ZM83.3571 12.3333C85.1796 12.3333 86.961 12.8758 88.4763 13.8922C89.9916 14.9086 91.1726 16.3533 91.87 18.0435C92.5674 19.7337 92.7499 21.5936 92.3944 23.3879C92.0388 25.1822 91.1613 26.8304 89.8726 28.1241C88.584 29.4177 86.9422 30.2987 85.1548 30.6556C83.3674 31.0125 81.5147 30.8293 79.831 30.1292C78.1473 29.4291 76.7082 28.2435 75.6957 26.7224C74.6833 25.2012 74.1429 23.4128 74.1429 21.5833C74.1454 19.1309 75.117 16.7796 76.8445 15.0454C78.5719 13.3113 80.9141 12.3359 83.3571 12.3333ZM37.2857 67.8333C35.6565 67.8333 34.0941 67.1836 32.9421 66.0272C31.79 64.8707 31.1429 63.3022 31.1429 61.6667V48.6338L49.3487 32.3885C51.1053 30.8246 53.3897 29.9918 55.7366 30.0598C58.0835 30.1279 60.3163 31.0916 61.98 32.7546L74.4481 45.2441L51.946 67.8333H37.2857ZM104.857 61.6667C104.857 63.3022 104.21 64.8707 103.058 66.0272C101.906 67.1836 100.343 67.8333 98.7143 67.8333H60.6343L83.9426 44.4347C85.5929 43.0259 87.6871 42.2497 89.8533 42.2441C92.0196 42.2384 94.1178 43.0036 95.7753 44.4039L104.857 52.0004V61.6667Z" fill="#0E0E0E"/>
<path d="M0.931227 101.718C0.931227 100.494 1.20723 99.396 1.75923 98.424C2.31123 97.44 3.06123 96.672 4.00923 96.12C4.96923 95.568 6.03123 95.292 7.19523 95.292C8.56323 95.292 9.75723 95.622 10.7772 96.282C11.7972 96.942 12.5412 97.878 13.0092 99.09H11.0472C10.6992 98.334 10.1952 97.752 9.53523 97.344C8.88723 96.936 8.10723 96.732 7.19523 96.732C6.31923 96.732 5.53323 96.936 4.83723 97.344C4.14123 97.752 3.59523 98.334 3.19923 99.09C2.80323 99.834 2.60523 100.71 2.60523 101.718C2.60523 102.714 2.80323 103.59 3.19923 104.346C3.59523 105.09 4.14123 105.666 4.83723 106.074C5.53323 106.482 6.31923 106.686 7.19523 106.686C8.10723 106.686 8.88723 106.488 9.53523 106.092C10.1952 105.684 10.6992 105.102 11.0472 104.346H13.0092C12.5412 105.546 11.7972 106.476 10.7772 107.136C9.75723 107.784 8.56323 108.108 7.19523 108.108C6.03123 108.108 4.96923 107.838 4.00923 107.298C3.06123 106.746 2.31123 105.984 1.75923 105.012C1.20723 104.04 0.931227 102.942 0.931227 101.718ZM20.3435 97.956C21.0875 97.956 21.7595 98.118 22.3595 98.442C22.9595 98.754 23.4275 99.228 23.7635 99.864C24.1115 100.5 24.2855 101.274 24.2855 102.186V108H22.6655V102.42C22.6655 101.436 22.4195 100.686 21.9275 100.17C21.4355 99.642 20.7635 99.378 19.9115 99.378C19.0475 99.378 18.3575 99.648 17.8415 100.188C17.3375 100.728 17.0855 101.514 17.0855 102.546V108H15.4475V94.68H17.0855V99.54C17.4095 99.036 17.8535 98.646 18.4175 98.37C18.9935 98.094 19.6355 97.956 20.3435 97.956ZM26.3492 103.032C26.3492 102.024 26.5532 101.142 26.9612 100.386C27.3692 99.618 27.9272 99.024 28.6352 98.604C29.3552 98.184 30.1532 97.974 31.0292 97.974C31.8932 97.974 32.6432 98.16 33.2792 98.532C33.9152 98.904 34.3892 99.372 34.7012 99.936V98.136H36.3572V108H34.7012V106.164C34.3772 106.74 33.8912 107.22 33.2432 107.604C32.6072 107.976 31.8632 108.162 31.0112 108.162C30.1352 108.162 29.3432 107.946 28.6352 107.514C27.9272 107.082 27.3692 106.476 26.9612 105.696C26.5532 104.916 26.3492 104.028 26.3492 103.032ZM34.7012 103.05C34.7012 102.306 34.5512 101.658 34.2512 101.106C33.9512 100.554 33.5432 100.134 33.0272 99.846C32.5232 99.546 31.9652 99.396 31.3532 99.396C30.7412 99.396 30.1832 99.54 29.6792 99.828C29.1752 100.116 28.7732 100.536 28.4732 101.088C28.1732 101.64 28.0232 102.288 28.0232 103.032C28.0232 103.788 28.1732 104.448 28.4732 105.012C28.7732 105.564 29.1752 105.99 29.6792 106.29C30.1832 106.578 30.7412 106.722 31.3532 106.722C31.9652 106.722 32.5232 106.578 33.0272 106.29C33.5432 105.99 33.9512 105.564 34.2512 105.012C34.5512 104.448 34.7012 103.794 34.7012 103.05ZM43.9313 97.956C45.1313 97.956 46.1033 98.322 46.8473 99.054C47.5913 99.774 47.9633 100.818 47.9633 102.186V108H46.3433V102.42C46.3433 101.436 46.0973 100.686 45.6053 100.17C45.1133 99.642 44.4413 99.378 43.5893 99.378C42.7253 99.378 42.0353 99.648 41.5193 100.188C41.0153 100.728 40.7633 101.514 40.7633 102.546V108H39.1253V98.136H40.7633V99.54C41.0873 99.036 41.5253 98.646 42.0773 98.37C42.6413 98.094 43.2593 97.956 43.9313 97.956ZM54.7069 97.974C55.5589 97.974 56.3029 98.16 56.9389 98.532C57.5869 98.904 58.0669 99.372 58.3789 99.936V98.136H60.0349V108.216C60.0349 109.116 59.8429 109.914 59.4589 110.61C59.0749 111.318 58.5229 111.87 57.8029 112.266C57.0949 112.662 56.2669 112.86 55.3189 112.86C54.0229 112.86 52.9429 112.554 52.0789 111.942C51.2149 111.33 50.7049 110.496 50.5489 109.44H52.1689C52.3489 110.04 52.7209 110.52 53.2849 110.88C53.8489 111.252 54.5269 111.438 55.3189 111.438C56.2189 111.438 56.9509 111.156 57.5149 110.592C58.0909 110.028 58.3789 109.236 58.3789 108.216V106.146C58.0549 106.722 57.5749 107.202 56.9389 107.586C56.3029 107.97 55.5589 108.162 54.7069 108.162C53.8309 108.162 53.0329 107.946 52.3129 107.514C51.6049 107.082 51.0469 106.476 50.6389 105.696C50.2309 104.916 50.0269 104.028 50.0269 103.032C50.0269 102.024 50.2309 101.142 50.6389 100.386C51.0469 99.618 51.6049 99.024 52.3129 98.604C53.0329 98.184 53.8309 97.974 54.7069 97.974ZM58.3789 103.05C58.3789 102.306 58.2289 101.658 57.9289 101.106C57.6289 100.554 57.2209 100.134 56.7049 99.846C56.2009 99.546 55.6429 99.396 55.0309 99.396C54.4189 99.396 53.8609 99.54 53.3569 99.828C52.8529 100.116 52.4509 100.536 52.1509 101.088C51.8509 101.64 51.7009 102.288 51.7009 103.032C51.7009 103.788 51.8509 104.448 52.1509 105.012C52.4509 105.564 52.8529 105.99 53.3569 106.29C53.8609 106.578 54.4189 106.722 55.0309 106.722C55.6429 106.722 56.2009 106.578 56.7049 106.29C57.2209 105.99 57.6289 105.564 57.9289 105.012C58.2289 104.448 58.3789 103.794 58.3789 103.05ZM71.803 102.69C71.803 103.002 71.785 103.332 71.749 103.68H63.865C63.925 104.652 64.255 105.414 64.855 105.966C65.467 106.506 66.205 106.776 67.069 106.776C67.777 106.776 68.365 106.614 68.833 106.29C69.313 105.954 69.649 105.51 69.841 104.958H71.605C71.341 105.906 70.813 106.68 70.021 107.28C69.229 107.868 68.245 108.162 67.069 108.162C66.133 108.162 65.293 107.952 64.549 107.532C63.817 107.112 63.241 106.518 62.821 105.75C62.401 104.97 62.191 104.07 62.191 103.05C62.191 102.03 62.395 101.136 62.803 100.368C63.211 99.6 63.781 99.012 64.513 98.604C65.257 98.184 66.109 97.974 67.069 97.974C68.005 97.974 68.833 98.178 69.553 98.586C70.273 98.994 70.825 99.558 71.209 100.278C71.605 100.986 71.803 101.79 71.803 102.69ZM70.111 102.348C70.111 101.724 69.973 101.19 69.697 100.746C69.421 100.29 69.043 99.948 68.563 99.72C68.095 99.48 67.573 99.36 66.997 99.36C66.169 99.36 65.461 99.624 64.873 100.152C64.297 100.68 63.967 101.412 63.883 102.348H70.111ZM80.4019 95.454V108H78.7639V95.454H80.4019ZM95.0556 97.956C95.8236 97.956 96.5076 98.118 97.1076 98.442C97.7076 98.754 98.1816 99.228 98.5296 99.864C98.8776 100.5 99.0516 101.274 99.0516 102.186V108H97.4316V102.42C97.4316 101.436 97.1856 100.686 96.6936 100.17C96.2136 99.642 95.5596 99.378 94.7316 99.378C93.8796 99.378 93.2016 99.654 92.6976 100.206C92.1936 100.746 91.9416 101.532 91.9416 102.564V108H90.3216V102.42C90.3216 101.436 90.0756 100.686 89.5836 100.17C89.1036 99.642 88.4496 99.378 87.6216 99.378C86.7696 99.378 86.0916 99.654 85.5876 100.206C85.0836 100.746 84.8316 101.532 84.8316 102.564V108H83.1936V98.136H84.8316V99.558C85.1556 99.042 85.5876 98.646 86.1276 98.37C86.6796 98.094 87.2856 97.956 87.9456 97.956C88.7736 97.956 89.5056 98.142 90.1416 98.514C90.7776 98.886 91.2516 99.432 91.5636 100.152C91.8396 99.456 92.2956 98.916 92.9316 98.532C93.5676 98.148 94.2756 97.956 95.0556 97.956ZM101.127 103.032C101.127 102.024 101.331 101.142 101.739 100.386C102.147 99.618 102.705 99.024 103.413 98.604C104.133 98.184 104.931 97.974 105.807 97.974C106.671 97.974 107.421 98.16 108.057 98.532C108.693 98.904 109.167 99.372 109.479 99.936V98.136H111.135V108H109.479V106.164C109.155 106.74 108.669 107.22 108.021 107.604C107.385 107.976 106.641 108.162 105.789 108.162C104.913 108.162 104.121 107.946 103.413 107.514C102.705 107.082 102.147 106.476 101.739 105.696C101.331 104.916 101.127 104.028 101.127 103.032ZM109.479 103.05C109.479 102.306 109.329 101.658 109.029 101.106C108.729 100.554 108.321 100.134 107.805 99.846C107.301 99.546 106.743 99.396 106.131 99.396C105.519 99.396 104.961 99.54 104.457 99.828C103.953 100.116 103.551 100.536 103.251 101.088C102.951 101.64 102.801 102.288 102.801 103.032C102.801 103.788 102.951 104.448 103.251 105.012C103.551 105.564 103.953 105.99 104.457 106.29C104.961 106.578 105.519 106.722 106.131 106.722C106.743 106.722 107.301 106.578 107.805 106.29C108.321 105.99 108.729 105.564 109.029 105.012C109.329 104.448 109.479 103.794 109.479 103.05ZM117.971 97.974C118.823 97.974 119.567 98.16 120.203 98.532C120.851 98.904 121.331 99.372 121.643 99.936V98.136H123.299V108.216C123.299 109.116 123.107 109.914 122.723 110.61C122.339 111.318 121.787 111.87 121.067 112.266C120.359 112.662 119.531 112.86 118.583 112.86C117.287 112.86 116.207 112.554 115.343 111.942C114.479 111.33 113.969 110.496 113.813 109.44H115.433C115.613 110.04 115.985 110.52 116.549 110.88C117.113 111.252 117.791 111.438 118.583 111.438C119.483 111.438 120.215 111.156 120.779 110.592C121.355 110.028 121.643 109.236 121.643 108.216V106.146C121.319 106.722 120.839 107.202 120.203 107.586C119.567 107.97 118.823 108.162 117.971 108.162C117.095 108.162 116.297 107.946 115.577 107.514C114.869 107.082 114.311 106.476 113.903 105.696C113.495 104.916 113.291 104.028 113.291 103.032C113.291 102.024 113.495 101.142 113.903 100.386C114.311 99.618 114.869 99.024 115.577 98.604C116.297 98.184 117.095 97.974 117.971 97.974ZM121.643 103.05C121.643 102.306 121.493 101.658 121.193 101.106C120.893 100.554 120.485 100.134 119.969 99.846C119.465 99.546 118.907 99.396 118.295 99.396C117.683 99.396 117.125 99.54 116.621 99.828C116.117 100.116 115.715 100.536 115.415 101.088C115.115 101.64 114.965 102.288 114.965 103.032C114.965 103.788 115.115 104.448 115.415 105.012C115.715 105.564 116.117 105.99 116.621 106.29C117.125 106.578 117.683 106.722 118.295 106.722C118.907 106.722 119.465 106.578 119.969 106.29C120.485 105.99 120.893 105.564 121.193 105.012C121.493 104.448 121.643 103.794 121.643 103.05ZM135.067 102.69C135.067 103.002 135.049 103.332 135.013 103.68H127.129C127.189 104.652 127.519 105.414 128.119 105.966C128.731 106.506 129.469 106.776 130.333 106.776C131.041 106.776 131.629 106.614 132.097 106.29C132.577 105.954 132.913 105.51 133.105 104.958H134.869C134.605 105.906 134.077 106.68 133.285 107.28C132.493 107.868 131.509 108.162 130.333 108.162C129.397 108.162 128.557 107.952 127.813 107.532C127.081 107.112 126.505 106.518 126.085 105.75C125.665 104.97 125.455 104.07 125.455 103.05C125.455 102.03 125.659 101.136 126.067 100.368C126.475 99.6 127.045 99.012 127.777 98.604C128.521 98.184 129.373 97.974 130.333 97.974C131.269 97.974 132.097 98.178 132.817 98.586C133.537 98.994 134.089 99.558 134.473 100.278C134.869 100.986 135.067 101.79 135.067 102.69ZM133.375 102.348C133.375 101.724 133.237 101.19 132.961 100.746C132.685 100.29 132.307 99.948 131.827 99.72C131.359 99.48 130.837 99.36 130.261 99.36C129.433 99.36 128.725 99.624 128.137 100.152C127.561 100.68 127.231 101.412 127.147 102.348H133.375Z" fill="#0E0E0E"/>
</svg>
