<svg width="24" height="25" viewBox="0 0 24 25" fill="none" xmlns="http://www.w3.org/2000/svg">
<g clip-path="url(#clip0_789_13671)">
<path d="M12 0.0654297C5.36792 0.0654297 0 5.43243 0 12.0654C0 14.1702 0.54895 16.2259 1.59137 18.0391L0.045227 22.8404C-0.0626221 23.1752 0.026001 23.5421 0.274658 23.7908C0.520935 24.037 0.886963 24.129 1.22498 24.0202L6.02636 22.4741C7.83947 23.5165 9.8952 24.0654 12 24.0654C18.6321 24.0654 24 18.6984 24 12.0654C24 5.43335 18.633 0.0654297 12 0.0654297ZM12 22.1904C10.0988 22.1904 8.2456 21.66 6.64068 20.6564C6.40979 20.5121 6.12304 20.4731 5.85626 20.559L2.39026 21.6752L3.50647 18.2092C3.59106 17.9462 3.55536 17.6591 3.40887 17.4247C2.40546 15.8198 1.875 13.9666 1.875 12.0654C1.875 6.48254 6.41711 1.94043 12 1.94043C17.5829 1.94043 22.125 6.48254 22.125 12.0654C22.125 17.6483 17.5829 22.1904 12 22.1904ZM13.1719 12.0654C13.1719 12.7125 12.6473 13.2373 12 13.2373C11.3527 13.2373 10.8281 12.7125 10.8281 12.0654C10.8281 11.4181 11.3527 10.8935 12 10.8935C12.6473 10.8935 13.1719 11.4181 13.1719 12.0654ZM17.8594 12.0654C17.8594 12.7125 17.3348 13.2373 16.6875 13.2373C16.0402 13.2373 15.5156 12.7125 15.5156 12.0654C15.5156 11.4181 16.0402 10.8935 16.6875 10.8935C17.3348 10.8935 17.8594 11.4181 17.8594 12.0654ZM8.48437 12.0654C8.48437 12.7125 7.95977 13.2373 7.3125 13.2373C6.6654 13.2373 6.14062 12.7125 6.14062 12.0654C6.14062 11.4181 6.6654 10.8935 7.3125 10.8935C7.95977 10.8935 8.48437 11.4181 8.48437 12.0654Z" fill="#0E0E0E"/>
</g>
<defs>
<clipPath id="clip0_789_13671">
<rect width="24" height="24" fill="white" transform="translate(0 0.0654297)"/>
</clipPath>
</defs>
</svg>
