<svg width="24" height="22" viewBox="0 0 24 22" fill="none" xmlns="http://www.w3.org/2000/svg">
<path d="M12 8.76855C14.2487 8.76855 16.0781 6.93912 16.0781 4.69043C16.0781 2.44174 14.2487 0.612305 12 0.612305C9.75131 0.612305 7.92188 2.44174 7.92188 4.69043C7.92188 6.93912 9.75131 8.76855 12 8.76855ZM12 2.01855C13.4733 2.01855 14.6719 3.21715 14.6719 4.69043C14.6719 6.16371 13.4733 7.3623 12 7.3623C10.5267 7.3623 9.32812 6.16371 9.32812 4.69043C9.32812 3.21715 10.5267 2.01855 12 2.01855Z" fill="#0E0E0E"/>
<path d="M20.25 8.76855C21.6716 8.76855 22.8281 7.61201 22.8281 6.19043C22.8281 4.76885 21.6716 3.6123 20.25 3.6123C18.8284 3.6123 17.6719 4.76885 17.6719 6.19043C17.6719 7.61201 18.8284 8.76855 20.25 8.76855ZM20.25 5.01855C20.8962 5.01855 21.4219 5.54426 21.4219 6.19043C21.4219 6.8366 20.8962 7.3623 20.25 7.3623C19.6038 7.3623 19.0781 6.8366 19.0781 6.19043C19.0781 5.54426 19.6038 5.01855 20.25 5.01855Z" fill="#0E0E0E"/>
<path d="M20.8172 10.3623H19.7297C18.4482 10.3623 17.3419 11.1194 16.8378 12.2069C15.8 11.074 14.3092 10.3623 12.6553 10.3623H11.3448C9.69084 10.3623 8.20008 11.074 7.16222 12.2069C6.65808 11.1194 5.55183 10.3623 4.27031 10.3623H3.18281C1.42781 10.3623 0 11.7815 0 13.5259V18.6451C0 19.4024 0.618469 20.0186 1.37869 20.0186H5.67839C5.75048 20.8576 6.45605 21.5186 7.31353 21.5186H16.6865C17.544 21.5186 18.2495 20.8576 18.3217 20.0186H22.5722C23.3595 20.0186 24 19.3806 24 18.5964V13.5259C24 11.7815 22.5722 10.3623 20.8172 10.3623ZM1.40625 13.5259C1.40625 12.5569 2.20322 11.7686 3.18281 11.7686H4.27031C5.24991 11.7686 6.04688 12.5569 6.04688 13.5259V14.0074C5.57405 15.2385 5.67188 15.9763 5.67188 18.6123H1.40625V13.5259ZM16.9219 19.8769C16.9219 20.0067 16.8163 20.1123 16.6865 20.1123H7.31348C7.18369 20.1123 7.07812 20.0067 7.07812 19.8769V16.0352C7.07812 13.6826 8.99212 11.7686 11.3447 11.7686H12.6552C15.0079 11.7686 16.9219 13.6826 16.9219 16.0352V19.8769ZM22.5938 18.5964C22.5938 18.6206 22.8559 18.6123 18.3281 18.6123C18.3281 15.9568 18.4252 15.2365 17.9531 14.0074V13.5259C17.9531 12.5569 18.7501 11.7686 19.7297 11.7686H20.8172C21.7968 11.7686 22.5938 12.5569 22.5938 13.5259V18.5964Z" fill="#0E0E0E"/>
<path d="M3.75 8.76855C5.17158 8.76855 6.32812 7.61201 6.32812 6.19043C6.32812 4.76885 5.17158 3.6123 3.75 3.6123C2.32842 3.6123 1.17188 4.76885 1.17188 6.19043C1.17188 7.61201 2.32842 8.76855 3.75 8.76855ZM3.75 5.01855C4.39617 5.01855 4.92188 5.54426 4.92188 6.19043C4.92188 6.8366 4.39617 7.3623 3.75 7.3623C3.10383 7.3623 2.57812 6.8366 2.57812 6.19043C2.57812 5.54426 3.10383 5.01855 3.75 5.01855Z" fill="#0E0E0E"/>
</svg>
