<svg width="24" height="25" viewBox="0 0 24 25" fill="none" xmlns="http://www.w3.org/2000/svg">
<path d="M23.3555 11.0043C23.3547 11.0037 23.3542 11.003 23.3536 11.0024L13.5626 1.21271C13.1452 0.795227 12.5903 0.56543 12.0001 0.56543C11.4099 0.56543 10.8551 0.795227 10.4375 1.21271L0.65158 10.9975C0.648283 11.0008 0.644804 11.0043 0.641691 11.0076C-0.215329 11.8694 -0.213864 13.2678 0.645903 14.1275C1.0387 14.5204 1.55731 14.7479 2.11199 14.7719C2.1347 14.774 2.15741 14.7751 2.1803 14.7751H2.57035V21.9796C2.57035 23.4055 3.73063 24.5654 5.15661 24.5654H8.9872C9.3756 24.5654 9.6904 24.2505 9.6904 23.8623V18.2139C9.6904 17.5633 10.2198 17.0341 10.8704 17.0341H13.1298C13.7805 17.0341 14.3097 17.5633 14.3097 18.2139V23.8623C14.3097 24.2505 14.6245 24.5654 15.0129 24.5654H18.8435C20.2696 24.5654 21.4297 23.4055 21.4297 21.9796V14.7751H21.7916C22.3816 14.7751 22.9365 14.5453 23.3542 14.1277C24.2149 13.2667 24.2152 11.8658 23.3555 11.0043ZM22.3596 13.1334C22.2078 13.2852 22.006 13.3689 21.7916 13.3689H20.7265C20.3381 13.3689 20.0233 13.6837 20.0233 14.072V21.9796C20.0233 22.63 19.4941 23.1592 18.8435 23.1592H15.7161V18.2139C15.7161 16.788 14.556 15.6279 13.1298 15.6279H10.8704C9.44428 15.6279 8.284 16.788 8.284 18.2139V23.1592H5.15661C4.50616 23.1592 3.97674 22.63 3.97674 21.9796V14.072C3.97674 13.6837 3.66195 13.3689 3.27355 13.3689H2.22681C2.21582 13.3682 2.20502 13.3676 2.19385 13.3674C1.98436 13.3638 1.78786 13.2806 1.64063 13.1332C1.32749 12.8201 1.32749 12.3105 1.64063 11.9973C1.64082 11.9973 1.64082 11.9971 1.641 11.9969L1.64155 11.9963L11.4323 2.20697C11.5839 2.05518 11.7855 1.97168 12.0001 1.97168C12.2146 1.97168 12.4162 2.05518 12.568 2.20697L22.3565 11.9943C22.358 11.9958 22.3596 11.9973 22.3611 11.9987C22.6726 12.3124 22.6721 12.8209 22.3596 13.1334Z" fill="#0E0E0E"/>
</svg>
