<svg width="33" height="32" viewBox="0 0 33 32" fill="none" xmlns="http://www.w3.org/2000/svg">
<path d="M21.9533 0H6.43555C4.3678 0 2.68555 1.68225 2.68555 3.75V28.25C2.68555 30.3177 4.3678 32 6.43555 32H26.4355C28.5033 32 30.1855 30.3177 30.1855 28.25V8.23225L21.9533 0ZM22.6855 4.26775L25.9178 7.5H23.9355C23.2463 7.5 22.6855 6.93925 22.6855 6.25V4.26775ZM26.4355 29.5H6.43555C5.7463 29.5 5.18555 28.9393 5.18555 28.25V3.75C5.18555 3.06075 5.7463 2.5 6.43555 2.5H20.1855V6.25C20.1855 8.31775 21.8678 10 23.9355 10H27.6855V28.25C27.6855 28.9393 27.1248 29.5 26.4355 29.5Z" fill="white"/>
<path d="M22.3195 16.8839L20.5518 15.1161L17.6856 17.9823V9.75H15.1856V17.9823L12.3195 15.1161L10.5518 16.8839L16.4356 22.7677L22.3195 16.8839Z" fill="white"/>
<path d="M10.1855 24.75H22.6855V27.25H10.1855V24.75Z" fill="white"/>
</svg>
