<svg width="22" height="15" viewBox="0 0 22 15" fill="none" xmlns="http://www.w3.org/2000/svg">
<path d="M21.7529 7.14295C19.9689 3.38706 15.9122 0.000488281 11.1667 0.000488281C5.82718 0.000488281 1.9891 4.17743 0.580567 7.14295C0.473144 7.36919 0.473144 7.63188 0.580567 7.85812C2.36459 11.614 6.42126 15.0006 11.1667 15.0006C16.5063 15.0006 20.3444 10.8235 21.7529 7.85812C21.8603 7.63188 21.8603 7.36919 21.7529 7.14295ZM11.1667 13.3339C7.32752 13.3339 4.14439 10.8038 2.27719 7.50053C4.13658 4.2108 7.31775 1.66717 11.1667 1.66717C15.0056 1.66717 18.1891 4.19697 20.0563 7.50053C18.1969 10.7901 15.0157 13.3339 11.1667 13.3339ZM11.1667 3.33384C8.86919 3.33384 7.00004 5.20299 7.00004 7.50053C7.00004 9.79807 8.86919 11.6672 11.1667 11.6672C13.4643 11.6672 15.3334 9.79807 15.3334 7.50053C15.3334 5.20299 13.4643 3.33384 11.1667 3.33384ZM11.1667 10.0005C9.7883 10.0005 8.66672 8.87896 8.66672 7.50053C8.66672 6.12194 9.7883 5.00052 11.1667 5.00052C12.5453 5.00052 13.6667 6.12194 13.6667 7.50053C13.6667 8.87896 12.5453 10.0005 11.1667 10.0005Z" fill="#8C8C8C"/>
</svg>
