<svg width="22" height="15" viewBox="0 0 22 15" fill="none" xmlns="http://www.w3.org/2000/svg">
<path d="M21.7529 7.14246C19.9689 3.38658 15.9122 0 11.1667 0C5.82718 0 1.9891 4.17695 0.580567 7.14246C0.473144 7.3687 0.473144 7.63139 0.580567 7.85763C2.36459 11.6135 6.42126 15.0001 11.1667 15.0001C16.5063 15.0001 20.3444 10.823 21.7529 7.85763C21.8603 7.63139 21.8603 7.3687 21.7529 7.14246ZM11.1667 13.3334C7.32752 13.3334 4.14439 10.8033 2.27719 7.50005C4.13658 4.21031 7.31775 1.66668 11.1667 1.66668C15.0056 1.66668 18.1891 4.19648 20.0563 7.50005C18.1969 10.7896 15.0157 13.3334 11.1667 13.3334ZM11.1667 3.33335C8.86919 3.33335 7.00004 5.20251 7.00004 7.50005C7.00004 9.79759 8.86919 11.6667 11.1667 11.6667C13.4643 11.6667 15.3334 9.79759 15.3334 7.50005C15.3334 5.20251 13.4643 3.33335 11.1667 3.33335ZM11.1667 10.0001C9.7883 10.0001 8.66672 8.87847 8.66672 7.50005C8.66672 6.12146 9.7883 5.00003 11.1667 5.00003C12.5453 5.00003 13.6667 6.12146 13.6667 7.50005C13.6667 8.87847 12.5453 10.0001 11.1667 10.0001Z" fill="#8C8C8C"/>
</svg>
