<svg width="57" height="60" viewBox="0 0 57 60" fill="none" xmlns="http://www.w3.org/2000/svg">
<rect x="0.594304" y="0.594059" width="55.2475" height="58.8115" rx="4.15842" fill="white"/>
<rect x="0.594304" y="0.594059" width="55.2475" height="58.8115" rx="4.15842" stroke="#DBDBDB" stroke-width="1.18812"/>
<path fill-rule="evenodd" clip-rule="evenodd" d="M28.2182 27.3269C34.6159 27.3269 39.8024 24.9331 39.8024 21.9803C39.8024 19.0275 34.6159 16.6338 28.2182 16.6338C21.8204 16.6338 16.634 19.0275 16.634 21.9803C16.634 24.9331 21.8204 27.3269 28.2182 27.3269Z" stroke="#0E0E0E" stroke-width="1.78218" stroke-linecap="round" stroke-linejoin="round"/>
<path d="M16.634 21.98C16.637 27.3449 20.3245 32.0054 25.5449 33.2422V40.6929C25.5449 42.1693 26.7418 43.3661 28.2182 43.3661C29.6946 43.3661 30.8915 42.1693 30.8915 40.6929V33.2422C36.1119 32.0054 39.7993 27.3449 39.8024 21.98" stroke="#0E0E0E" stroke-width="1.78218" stroke-linecap="round" stroke-linejoin="round"/>
</svg>
