<svg width="91" height="30" viewBox="0 0 91 30" fill="none" xmlns="http://www.w3.org/2000/svg">
<rect y="0.5" width="90.9993" height="29" rx="14.5" fill="#C74F4F"/>
<path d="M21.2812 19.25V20.5C21.2812 21.8785 20.1598 23 18.7812 23H12.5C11.1215 23 10 21.8785 10 20.5V9.5C10 8.12146 11.1215 7 12.5 7H18.7812C20.1598 7 21.2812 8.12146 21.2812 9.5V10.75C21.2812 11.0952 21.0015 11.375 20.6562 11.375C20.311 11.375 20.0312 11.0952 20.0312 10.75V9.5C20.0312 8.81079 19.4705 8.25 18.7812 8.25H12.5C11.8108 8.25 11.25 8.81079 11.25 9.5V20.5C11.25 21.1892 11.8108 21.75 12.5 21.75H18.7812C19.4705 21.75 20.0312 21.1892 20.0312 20.5V19.25C20.0312 18.9048 20.311 18.625 20.6562 18.625C21.0015 18.625 21.2812 18.9048 21.2812 19.25ZM25.5424 13.9264L24.1428 12.5269C23.8987 12.2827 23.5029 12.2827 23.2589 12.5269C23.0148 12.7709 23.0148 13.1666 23.2589 13.4106L24.2544 14.4062H16.75C16.4048 14.4062 16.125 14.686 16.125 15.0312C16.125 15.3765 16.4048 15.6562 16.75 15.6562H24.2544L23.2589 16.6519C23.0148 16.8959 23.0148 17.2916 23.2589 17.5356C23.381 17.6577 23.5409 17.7188 23.7008 17.7188C23.8608 17.7188 24.0208 17.6577 24.1428 17.5356L25.5424 16.1361C26.1516 15.5269 26.1516 14.5356 25.5424 13.9264Z" fill="white"/>
<path d="M34.9253 17.946H38.1453V19.5H32.9653V9.728H34.9253V17.946ZM42.835 19.626C42.0884 19.626 41.4164 19.4627 40.819 19.136C40.2217 18.8 39.7504 18.3287 39.405 17.722C39.069 17.1153 38.901 16.4153 38.901 15.622C38.901 14.8287 39.0737 14.1287 39.419 13.522C39.7737 12.9153 40.2544 12.4487 40.861 12.122C41.4677 11.786 42.1444 11.618 42.891 11.618C43.6377 11.618 44.3144 11.786 44.921 12.122C45.5277 12.4487 46.0037 12.9153 46.349 13.522C46.7037 14.1287 46.881 14.8287 46.881 15.622C46.881 16.4153 46.699 17.1153 46.335 17.722C45.9804 18.3287 45.495 18.8 44.879 19.136C44.2724 19.4627 43.591 19.626 42.835 19.626ZM42.835 17.918C43.1897 17.918 43.521 17.834 43.829 17.666C44.1464 17.4887 44.3984 17.2273 44.585 16.882C44.7717 16.5367 44.865 16.1167 44.865 15.622C44.865 14.8847 44.669 14.32 44.277 13.928C43.8944 13.5267 43.423 13.326 42.863 13.326C42.303 13.326 41.8317 13.5267 41.449 13.928C41.0757 14.32 40.889 14.8847 40.889 15.622C40.889 16.3593 41.071 16.9287 41.435 17.33C41.8084 17.722 42.275 17.918 42.835 17.918ZM51.3568 11.618C51.9355 11.618 52.4441 11.7347 52.8828 11.968C53.3215 12.192 53.6668 12.486 53.9188 12.85V11.744H55.8928V19.556C55.8928 20.2747 55.7481 20.914 55.4588 21.474C55.1695 22.0433 54.7355 22.4913 54.1568 22.818C53.5781 23.154 52.8781 23.322 52.0568 23.322C50.9555 23.322 50.0501 23.0653 49.3408 22.552C48.6408 22.0387 48.2441 21.3387 48.1508 20.452H50.0968C50.1995 20.8067 50.4188 21.0867 50.7548 21.292C51.1001 21.5067 51.5154 21.614 52.0008 21.614C52.5701 21.614 53.0321 21.4413 53.3868 21.096C53.7415 20.76 53.9188 20.2467 53.9188 19.556V18.352C53.6668 18.716 53.3168 19.0193 52.8688 19.262C52.4301 19.5047 51.9261 19.626 51.3568 19.626C50.7034 19.626 50.1061 19.458 49.5648 19.122C49.0234 18.786 48.5941 18.3147 48.2768 17.708C47.9688 17.092 47.8148 16.3873 47.8148 15.594C47.8148 14.81 47.9688 14.1147 48.2768 13.508C48.5941 12.9013 49.0188 12.4347 49.5508 12.108C50.0921 11.7813 50.6941 11.618 51.3568 11.618ZM53.9188 15.622C53.9188 15.146 53.8255 14.74 53.6388 14.404C53.4521 14.0587 53.2001 13.7973 52.8828 13.62C52.5655 13.4333 52.2248 13.34 51.8608 13.34C51.4968 13.34 51.1608 13.4287 50.8528 13.606C50.5448 13.7833 50.2928 14.0447 50.0968 14.39C49.9101 14.726 49.8168 15.1273 49.8168 15.594C49.8168 16.0607 49.9101 16.4713 50.0968 16.826C50.2928 17.1713 50.5448 17.4373 50.8528 17.624C51.1701 17.8107 51.5061 17.904 51.8608 17.904C52.2248 17.904 52.5655 17.8153 52.8828 17.638C53.2001 17.4513 53.4521 17.19 53.6388 16.854C53.8255 16.5087 53.9188 16.098 53.9188 15.622ZM61.2511 19.626C60.5044 19.626 59.8324 19.4627 59.2351 19.136C58.6377 18.8 58.1664 18.3287 57.8211 17.722C57.4851 17.1153 57.3171 16.4153 57.3171 15.622C57.3171 14.8287 57.4897 14.1287 57.8351 13.522C58.1897 12.9153 58.6704 12.4487 59.2771 12.122C59.8837 11.786 60.5604 11.618 61.3071 11.618C62.0537 11.618 62.7304 11.786 63.3371 12.122C63.9437 12.4487 64.4197 12.9153 64.7651 13.522C65.1197 14.1287 65.2971 14.8287 65.2971 15.622C65.2971 16.4153 65.1151 17.1153 64.7511 17.722C64.3964 18.3287 63.9111 18.8 63.2951 19.136C62.6884 19.4627 62.0071 19.626 61.2511 19.626ZM61.2511 17.918C61.6057 17.918 61.9371 17.834 62.2451 17.666C62.5624 17.4887 62.8144 17.2273 63.0011 16.882C63.1877 16.5367 63.2811 16.1167 63.2811 15.622C63.2811 14.8847 63.0851 14.32 62.6931 13.928C62.3104 13.5267 61.8391 13.326 61.2791 13.326C60.7191 13.326 60.2477 13.5267 59.8651 13.928C59.4917 14.32 59.3051 14.8847 59.3051 15.622C59.3051 16.3593 59.4871 16.9287 59.8511 17.33C60.2244 17.722 60.6911 17.918 61.2511 17.918ZM74.0568 11.744V19.5H72.0828V18.52C71.8308 18.856 71.4995 19.122 71.0888 19.318C70.6875 19.5047 70.2488 19.598 69.7728 19.598C69.1661 19.598 68.6295 19.472 68.1628 19.22C67.6961 18.9587 67.3275 18.5807 67.0568 18.086C66.7955 17.582 66.6648 16.9847 66.6648 16.294V11.744H68.6248V16.014C68.6248 16.63 68.7788 17.106 69.0868 17.442C69.3948 17.7687 69.8148 17.932 70.3468 17.932C70.8881 17.932 71.3128 17.7687 71.6208 17.442C71.9288 17.106 72.0828 16.63 72.0828 16.014V11.744H74.0568ZM78.2727 13.354V17.106C78.2727 17.3673 78.3333 17.5587 78.4547 17.68C78.5853 17.792 78.8 17.848 79.0987 17.848H80.0087V19.5H78.7767C77.1247 19.5 76.2987 18.6973 76.2987 17.092V13.354H75.3747V11.744H76.2987V9.826H78.2727V11.744H80.0087V13.354H78.2727Z" fill="white"/>
</svg>
