<svg width="20" height="20" viewBox="0 0 20 20" fill="none" xmlns="http://www.w3.org/2000/svg">
<path d="M14.1016 15.3125V16.875C14.1016 18.5982 12.6997 20 10.9766 20H3.125C1.40182 20 0 18.5982 0 16.875V3.125C0 1.40182 1.40182 0 3.125 0H10.9766C12.6997 0 14.1016 1.40182 14.1016 3.125V4.6875C14.1016 5.11902 13.7518 5.46875 13.3203 5.46875C12.8888 5.46875 12.5391 5.11902 12.5391 4.6875V3.125C12.5391 2.26349 11.8381 1.5625 10.9766 1.5625H3.125C2.26349 1.5625 1.5625 2.26349 1.5625 3.125V16.875C1.5625 17.7365 2.26349 18.4375 3.125 18.4375H10.9766C11.8381 18.4375 12.5391 17.7365 12.5391 16.875V15.3125C12.5391 14.881 12.8888 14.5312 13.3203 14.5312C13.7518 14.5312 14.1016 14.881 14.1016 15.3125ZM19.4279 8.65799L17.6785 6.90857C17.3734 6.60339 16.8787 6.60339 16.5736 6.90857C16.2685 7.21359 16.2685 7.70828 16.5736 8.01331L17.818 9.25781H8.4375C8.00598 9.25781 7.65625 9.60754 7.65625 10.0391C7.65625 10.4706 8.00598 10.8203 8.4375 10.8203H17.818L16.5736 12.0648C16.2685 12.3698 16.2685 12.8645 16.5736 13.1696C16.7262 13.3221 16.9261 13.3984 17.126 13.3984C17.326 13.3984 17.5259 13.3221 17.6785 13.1696L19.4279 11.4201C20.1895 10.6586 20.1895 9.41956 19.4279 8.65799Z" fill="white"/>
</svg>
