<svg width="24" height="24" viewBox="0 0 24 24" fill="none" xmlns="http://www.w3.org/2000/svg">
<g clip-path="url(#clip0_953_5)">
<path d="M23.8758 12.0002C23.8758 18.5934 18.5311 23.9381 11.9379 23.9381C5.34469 23.9381 0 18.5934 0 12.0002C0 5.40695 5.34469 0.0622559 11.9379 0.0622559C18.5311 0.0622559 23.8758 5.40695 23.8758 12.0002Z" fill="#4A7AFF"/>
<path d="M6.87598 7.92784L19.8691 20.9212C20.2178 20.6109 20.5482 20.2805 20.8584 19.9319L7.86509 6.93872L6.87598 7.92784Z" fill="#2864F0"/>
<path d="M13.8783 23.78C14.9746 23.6007 16.0205 23.2723 16.9947 22.816L5.47922 11.3005L2.79785 12.6995L13.8783 23.78Z" fill="#2864F0"/>
<path d="M12.637 2.86035L11.238 5.54172L22.7535 17.0572C23.2098 16.083 23.5382 15.0371 23.7175 13.9408L12.637 2.86035Z" fill="#2864F0"/>
<path d="M11.9378 6.36377C8.82488 6.36377 6.30127 8.88738 6.30127 12.0003C6.30127 13.5661 6.93992 14.9828 7.97093 16.0041L15.9416 8.03343C14.9203 7.00242 13.5036 6.36377 11.9378 6.36377Z" fill="#FDBA12"/>
<path d="M15.9418 8.03343C14.9205 7.00242 13.5038 6.36377 11.938 6.36377C10.3745 6.36377 8.95972 7.00059 7.93872 8.02869L11.9426 12.0327L15.9418 8.03343Z" fill="#FFA300"/>
<path d="M11.9378 8.23853C9.86026 8.23853 8.17603 9.92276 8.17603 12.0003C8.17603 13.0484 8.60519 13.9962 9.29684 14.6782L14.6157 9.35934C13.9337 8.66769 12.9859 8.23853 11.9378 8.23853Z" fill="#FCDA15"/>
<path d="M14.6154 9.35934C13.9334 8.66769 12.9856 8.23853 11.9375 8.23853C10.8917 8.23853 9.94579 8.66569 9.26416 9.35461L11.9421 12.0325L14.6154 9.35934Z" fill="#FFD400"/>
<path d="M11.238 2.86035H12.637V5.54172H11.238V2.86035Z" fill="#FFA300"/>
<path d="M2.79785 11.3005H5.47922V12.6995H2.79785V11.3005Z" fill="#FDBA12"/>
<path d="M16.01 6.93881L17.9061 5.04272L18.4192 5.55586L16.5231 7.45194L16.01 6.93881Z" fill="#FFA300"/>
<path d="M4.97998 17.9686L6.87606 16.0725L7.38902 16.5856L5.49312 18.4817L4.97998 17.9686Z" fill="#FDBA12"/>
<path d="M4.97998 6.03202L5.96928 5.04272L7.86518 6.93881L6.87606 7.92792L4.97998 6.03202Z" fill="#FDBA12"/>
<path d="M5.46094 5.55131L5.96934 5.04272L7.86542 6.93881L7.35684 7.44721L5.46094 5.55131Z" fill="#FFA300"/>
<path d="M3.39111 20.3336C3.42627 20.3697 3.4607 20.406 3.4964 20.4417C8.15837 25.1036 15.717 25.1036 20.3792 20.4417C25.0411 15.7797 25.0411 8.22087 20.3792 3.5589C20.3435 3.5232 20.3072 3.48877 20.2711 3.45361L3.39111 20.3336Z" fill="#414952"/>
<path d="M20.3789 3.5589C20.3432 3.5232 20.3069 3.48877 20.2708 3.45361L11.8169 11.9076L20.3648 20.4553C20.3694 20.4508 20.3743 20.4462 20.3789 20.4417C25.0408 15.7797 25.0408 8.22087 20.3789 3.5589Z" fill="#333940"/>
<path d="M16.8918 13.0871C16.8918 15.0593 15.2932 16.6581 13.321 16.6581C12.3224 16.6581 11.4196 16.2479 10.7715 15.5872C11.2074 17.4396 12.8707 18.8187 14.8562 18.8187C17.1738 18.8187 19.0526 16.9399 19.0524 14.6223C19.0524 12.6368 17.6734 10.9735 15.8209 10.5376C16.4818 11.1855 16.8918 12.0883 16.8918 13.0871Z" fill="white"/>
<path d="M19.0525 14.6223C19.0525 12.6368 17.6733 10.9735 15.8208 10.5376C16.4817 11.1857 16.8919 12.0885 16.8919 13.0871C16.8919 14.1558 16.4217 15.1139 15.678 15.7684L17.6566 17.747C18.5133 16.9789 19.0525 15.8635 19.0525 14.6223Z" fill="#E9EDF5"/>
</g>
<defs>
<clipPath id="clip0_953_5">
<rect width="23.8758" height="23.8758" fill="white" transform="translate(0 0.0622559)"/>
</clipPath>
</defs>
</svg>
