<svg width="29" height="32" viewBox="0 0 29 32" fill="none" xmlns="http://www.w3.org/2000/svg">
<path d="M17.0682 27.9446C17.0682 30.0551 15.3573 31.7659 13.2469 31.7659C11.1364 31.7659 9.42554 30.055 9.42554 27.9446H17.0682Z" fill="#FFB703"/>
<path d="M26.4945 25.3451C26.4945 26.3794 25.6561 27.2175 24.6221 27.2175H1.8724C0.838312 27.2175 0 26.3794 0 25.3451C0 24.9898 0.100165 24.6503 0.280194 24.36C0.459981 24.0691 0.719391 23.828 1.03736 23.6695C1.71339 23.3325 2.26516 22.8188 2.64755 22.2008C3.03044 21.5823 3.24396 20.8594 3.24396 20.104V12.7686C3.24396 8.05641 6.50239 4.1052 10.8892 3.04527C10.8781 2.95348 10.8728 2.86016 10.8728 2.76558C10.8728 1.45409 11.9357 0.391113 13.2472 0.391113C14.5584 0.391113 15.6217 1.45409 15.6217 2.76558C15.6217 2.86016 15.6161 2.95348 15.605 3.04527C15.9055 3.11779 16.2008 3.20401 16.4899 3.30289C16.1081 4.12777 15.8951 5.04673 15.8951 6.01563C15.8951 9.58672 18.7901 12.4818 22.3612 12.4818C22.6607 12.4818 22.9556 12.4615 23.2441 12.4219C23.2482 12.5371 23.2502 12.6524 23.2502 12.7686V20.104C23.2502 21.615 24.105 22.9955 25.4571 23.6695C25.7748 23.828 26.0342 24.0691 26.2142 24.3599C26.394 24.6503 26.4945 24.9898 26.4945 25.3451Z" fill="#FFB703"/>
<path d="M22.3613 11.7971C25.5544 11.7971 28.1428 9.20865 28.1428 6.01562C28.1428 2.82259 25.5544 0.234131 22.3613 0.234131C19.1683 0.234131 16.5798 2.82259 16.5798 6.01562C16.5798 9.20865 19.1683 11.7971 22.3613 11.7971Z" fill="#C74F4F"/>
<path d="M21.7702 8.8819V4.48176L21.0656 4.84847L20.6074 3.90085L22.0139 3.14917H22.9542V8.8819H21.7702Z" fill="#F0F7FE"/>
</svg>
