<svg width="27" height="32" viewBox="0 0 27 32" fill="none" xmlns="http://www.w3.org/2000/svg">
<path d="M17.0682 27.5537C17.0682 29.6642 15.3573 31.3751 13.2469 31.3751C11.1364 31.3751 9.42554 29.6642 9.42554 27.5537H17.0682Z" fill="#FFB703"/>
<path d="M26.4945 24.954C26.4945 25.9883 25.6561 26.8264 24.6221 26.8264H1.8724C0.838312 26.8264 0 25.9883 0 24.954C0 24.5987 0.100165 24.2592 0.280194 23.9689C0.459981 23.678 0.719391 23.4369 1.03736 23.2784C1.71339 22.9414 2.26516 22.4276 2.64755 21.8097C3.03044 21.1912 3.24396 20.4683 3.24396 19.7129V12.3775C3.24396 7.66529 6.50239 3.71409 10.8892 2.65416C10.8781 2.56237 10.8728 2.46905 10.8728 2.37447C10.8728 1.06298 11.9357 0 13.2472 0C14.5584 0 15.6217 1.06298 15.6217 2.37447C15.6217 2.46905 15.6161 2.56237 15.605 2.65416C15.9055 2.72667 16.2008 2.8129 16.4899 2.91178C16.1081 3.73666 15.8951 4.65562 15.8951 5.62452C15.8951 9.1956 18.7901 12.0907 22.3612 12.0907C22.6607 12.0907 22.9556 12.0704 23.2441 12.0308C23.2482 12.1459 23.2502 12.2613 23.2502 12.3775V19.7129C23.2502 21.2239 24.105 22.6044 25.4571 23.2784C25.7748 23.4368 26.0342 23.678 26.2142 23.9688C26.394 24.2592 26.4945 24.5987 26.4945 24.954Z" fill="#FFB703"/>
</svg>
