<svg width="27" height="28" viewBox="0 0 27 28" fill="none" xmlns="http://www.w3.org/2000/svg">
<path d="M26.4945 25.3446C26.4945 26.3789 25.6561 27.217 24.6221 27.217H1.8724C0.838312 27.217 0 26.3789 0 25.3446C0 24.9894 0.100165 24.6498 0.280194 24.3595C0.459981 24.0686 0.719391 23.8275 1.03736 23.669C1.71339 23.332 2.26516 22.8183 2.64755 22.2003C3.03044 21.5818 3.24396 20.8589 3.24396 20.1035V12.7681C3.24396 8.05592 6.50239 4.10471 10.8892 3.04478C10.8781 2.95299 10.8728 2.85967 10.8728 2.76509C10.8728 1.45361 11.9357 0.390625 13.2472 0.390625C14.5584 0.390625 15.6217 1.45361 15.6217 2.76509C15.6217 2.85967 15.6161 2.95299 15.605 3.04478C15.9055 3.1173 16.2008 3.20353 16.4899 3.30241C16.1081 4.12728 15.8951 5.04624 15.8951 6.01514C15.8951 9.58623 18.7901 12.4813 22.3612 12.4813C22.6607 12.4813 22.9556 12.461 23.2441 12.4214C23.2482 12.5366 23.2502 12.6519 23.2502 12.7681V20.1035C23.2502 21.6145 24.105 22.995 25.4571 23.669C25.7748 23.8275 26.0342 24.0686 26.2142 24.3595C26.394 24.6498 26.4945 24.9894 26.4945 25.3446Z" fill="#FFB703"/>
</svg>
