<svg width="24" height="25" viewBox="0 0 24 25" fill="none" xmlns="http://www.w3.org/2000/svg">
<path d="M23.8822 13.4108C21.4916 9.58666 21.5401 9.66105 21.5164 9.62866C21.4531 9.5441 21.3588 9.47997 21.2516 9.45377L16.9222 8.34367V0.534183C16.9222 0.275291 16.7123 0.0654297 16.4534 0.0654297H7.54709C7.2882 0.0654297 7.07834 0.275291 7.07834 0.534183V8.34367C2.97478 9.39583 2.74799 9.454 2.74312 9.45522C2.73801 9.45888 2.5657 9.48991 2.45934 9.66518L0.118287 13.4108C-0.0447929 13.6718 0.0838801 14.0169 0.377929 14.1073L1.92205 14.5824V20.7843C1.92205 20.9925 2.05935 21.1758 2.25913 21.2342C14.6535 24.8618 11.2675 23.8758 11.8737 24.0479C11.9608 24.0722 12.0524 24.0715 12.1406 24.0442L21.7414 21.2342C21.9412 21.1758 22.0785 20.9925 22.0785 20.7843V14.5824L23.6225 14.1073C23.9166 14.0169 24.0453 13.6718 23.8822 13.4108ZM19.2537 9.90926L16.9222 10.5071V9.31146L19.2537 9.90926ZM15.9847 1.00294V10.7475L12.0003 11.7691L8.01585 10.7474V1.00294H15.9847ZM7.07834 10.5071L4.74685 9.90926L7.07834 9.31146V10.5071ZM3.07528 10.4485L11.2955 12.5562L9.43116 15.912C8.83303 15.728 1.62252 13.5094 1.23645 13.3906L3.07528 10.4485ZM2.85956 14.8709L9.51863 16.9198C9.7298 16.9849 9.9585 16.8935 10.0663 16.6995L11.5315 14.062V22.9713L2.85956 20.4331V14.8709ZM21.141 20.4331L12.469 22.9713V14.062L13.9343 16.6994C14.0426 16.8944 14.2718 16.9845 14.4819 16.9198L21.141 14.8708V20.4331H21.141ZM14.5693 15.9121L12.7049 12.5563C13.0898 12.4576 20.4359 10.5739 20.9252 10.4485L22.764 13.3906C22.3275 13.5249 15.1029 15.7479 14.5693 15.9121Z" fill="#0E0E0E"/>
<path d="M9.42212 2.87794H14.5784C14.8373 2.87794 15.0472 2.66808 15.0472 2.40918C15.0472 2.15029 14.8373 1.94043 14.5784 1.94043H9.42212C9.16323 1.94043 8.95337 2.15029 8.95337 2.40918C8.95337 2.66808 9.16323 2.87794 9.42212 2.87794Z" fill="#0E0E0E"/>
<path d="M9.42212 4.75294H14.5784C14.8373 4.75294 15.0472 4.54308 15.0472 4.28418C15.0472 4.02529 14.8373 3.81543 14.5784 3.81543H9.42212C9.16323 3.81543 8.95337 4.02529 8.95337 4.28418C8.95337 4.54308 9.16323 4.75294 9.42212 4.75294Z" fill="#0E0E0E"/>
<path d="M9.42212 6.62794H14.5784C14.8373 6.62794 15.0472 6.41808 15.0472 6.15918C15.0472 5.90029 14.8373 5.69043 14.5784 5.69043H9.42212C9.16323 5.69043 8.95337 5.90029 8.95337 6.15918C8.95337 6.41808 9.16323 6.62794 9.42212 6.62794Z" fill="#0E0E0E"/>
<path d="M9.42212 8.50294H14.5784C14.8373 8.50294 15.0472 8.29308 15.0472 8.03418C15.0472 7.77529 14.8373 7.56543 14.5784 7.56543H9.42212C9.16323 7.56543 8.95337 7.77529 8.95337 8.03418C8.95337 8.29308 9.16323 8.50294 9.42212 8.50294Z" fill="#0E0E0E"/>
<path d="M13.1721 9.44043H10.8284C10.5695 9.44043 10.3596 9.65029 10.3596 9.90918C10.3596 10.1681 10.5695 10.3779 10.8284 10.3779H13.1721C13.431 10.3779 13.6409 10.1681 13.6409 9.90918C13.6409 9.65029 13.431 9.44043 13.1721 9.44043Z" fill="#0E0E0E"/>
</svg>
