<svg width="54" height="54" viewBox="0 0 54 54" fill="none" xmlns="http://www.w3.org/2000/svg">
<rect width="54" height="54" rx="20" fill="#FFB703" fill-opacity="0.2"/>
<path d="M43.8461 19.3835L43.8172 19.34C43.7772 19.2677 43.7309 19.1984 43.6794 19.1326L38.2479 10.9549C37.8566 10.3659 37.1282 10 36.3468 10H17.654C16.8714 10 16.1425 10.3668 15.7513 10.9574L10.2313 19.2971C10.1816 19.3723 10.1457 19.4509 10.1204 19.5308C10.0427 19.7135 10 19.9109 10 20.1169V41.6568C10 42.9488 11.207 43.9999 12.6906 43.9999H41.3093C42.7929 43.9999 43.9999 42.9488 43.9999 41.6568V20.0379C43.9999 20.009 43.9989 19.9803 43.9971 19.9518C44.0127 19.7601 43.965 19.5624 43.8461 19.3835ZM28.1833 11.9929H36.2936L40.5663 18.4259H28.1833V11.9929ZM17.7073 11.9929H25.8949V18.4259H13.4493L17.7073 11.9929ZM41.7114 41.6568C41.7114 41.85 41.531 42.0071 41.3093 42.0071H12.6906C12.4689 42.0071 12.2885 41.85 12.2885 41.6568V20.4188H41.7114V41.6568Z" fill="#FFB703"/>
<path d="M34.1842 25.4793C33.5663 24.8614 32.5641 24.8614 31.9461 25.4793L24.8794 32.546L22.1621 29.8287C21.5442 29.2107 20.542 29.2107 19.924 29.8287C19.3059 30.4466 19.3059 31.4488 19.924 32.0668L23.7605 35.9031C24.0695 36.2122 24.4747 36.3668 24.8796 36.3668C25.2844 36.3668 25.6897 36.2122 25.9986 35.9031L34.1842 27.7175C34.8023 27.0994 34.8023 26.0974 34.1842 25.4793Z" fill="#FFB703"/>
</svg>
