<svg width="84" height="85" viewBox="0 0 84 85" fill="none" xmlns="http://www.w3.org/2000/svg">
<g clip-path="url(#clip0_789_30852)">
<path d="M71.535 54.4023H12.3476C7.61993 54.4023 3.77344 58.2488 3.77344 62.9765V76.1098C3.77344 80.8375 7.61993 84.684 12.3476 84.684H71.535C76.2626 84.684 80.1091 80.8375 80.1091 76.1098V62.9765C80.1091 58.2488 76.2626 54.4023 71.535 54.4023ZM23.9621 71.0175L23.3193 71.2264L23.7166 71.7731C24.5158 72.8734 24.2716 74.4141 23.1712 75.2139C22.7342 75.5311 22.2279 75.6843 21.7254 75.6843C20.9641 75.6843 20.213 75.3318 19.731 74.6685L19.3337 74.1218L18.9364 74.6685C18.4544 75.3318 17.7033 75.6843 16.942 75.6843C16.4396 75.6843 15.9333 75.5311 15.4962 75.2132C14.3958 74.4141 14.1517 72.8734 14.9515 71.7731L15.3482 71.2264L14.706 71.0175C13.4121 70.5971 12.7039 69.2077 13.1243 67.9138C13.5448 66.6198 14.9335 65.9123 16.2281 66.3321L16.8709 66.541V65.8655C16.8709 64.505 17.9738 63.4021 19.3337 63.4021C20.6943 63.4021 21.7972 64.505 21.7972 65.8655V66.541L22.4394 66.3321C23.7339 65.9123 25.1233 66.6198 25.5431 67.9138C25.9635 69.2077 25.256 70.5971 23.9621 71.0175ZM39.0333 71.0175L38.3912 71.2264L38.7879 71.7731C39.5877 72.8734 39.3435 74.4141 38.2432 75.2139C37.8061 75.5311 37.2992 75.6843 36.7974 75.6843C36.0354 75.6843 35.2849 75.3318 34.803 74.6685L34.4056 74.1218L34.0083 74.6685C33.5264 75.3318 32.7753 75.6843 32.0139 75.6843C31.5115 75.6843 31.0052 75.5318 30.5681 75.2139C29.4678 74.4141 29.2236 72.8734 30.0227 71.7731L30.4201 71.2264L29.7773 71.0175C28.4834 70.5971 27.7759 69.2077 28.1963 67.9138C28.616 66.6198 30.0054 65.9123 31.3 66.3321L31.9421 66.541V65.8655C31.9421 64.505 33.0451 63.4021 34.4056 63.4021C35.7656 63.4021 36.8685 64.505 36.8685 65.8655V66.541L37.5113 66.3321C38.8058 65.9123 40.1946 66.6198 40.615 67.9138C41.0354 69.2077 40.3273 70.5971 39.0333 71.0175ZM54.1053 71.0175L53.4631 71.2264L53.8598 71.7731C54.6596 72.8734 54.4155 74.4141 53.3151 75.2139C52.878 75.5311 52.3711 75.6843 51.8693 75.6843C51.1073 75.6843 50.3568 75.3318 49.8749 74.6685L49.4776 74.1218L49.0802 74.6685C48.5983 75.3318 47.8472 75.6843 47.0859 75.6843C46.5834 75.6843 46.0771 75.5318 45.6401 75.2139C44.5397 74.4141 44.2955 72.8734 45.0947 71.7731L45.492 71.2264L44.8492 71.0175C43.5553 70.5971 42.8478 69.2077 43.2682 67.9138C43.688 66.6198 45.0774 65.9123 46.3719 66.3321L47.0141 66.541V65.8655C47.0141 64.505 48.117 63.4021 49.4776 63.4021C50.8375 63.4021 51.9404 64.505 51.9404 65.8655V66.541L52.5832 66.3321C53.8778 65.9123 55.2665 66.6198 55.6869 67.9138C56.1074 69.2077 55.3992 70.5971 54.1053 71.0175ZM69.1772 71.0175L68.5344 71.2264L68.9318 71.7731C69.7316 72.8734 69.4874 74.4141 68.387 75.2132C67.95 75.5311 67.443 75.6843 66.9412 75.6843C66.1792 75.6843 65.4281 75.3318 64.9462 74.6685L64.5495 74.1218L64.1522 74.6685C63.6702 75.3318 62.9191 75.6843 62.1571 75.6843C61.6553 75.6843 61.1491 75.5318 60.712 75.2139C59.611 74.4141 59.3674 72.8734 60.1666 71.7731L60.5639 71.2264L59.9212 71.0175C58.6272 70.5971 57.9197 69.2077 58.3395 67.9138C58.7599 66.6198 60.1493 65.9123 61.4432 66.3321L62.086 66.541V65.8655C62.086 64.505 63.1889 63.4021 64.5495 63.4021C65.9094 63.4021 67.0124 64.505 67.0124 65.8655V66.541L67.6552 66.3321C68.9497 65.9123 70.3385 66.6198 70.7589 67.9138C71.1793 69.2077 70.4711 70.5971 69.1772 71.0175Z" fill="#1877F2" fill-opacity="0.733333"/>
<path d="M29.8317 49.581H54.0507C57.1839 49.581 59.7327 47.0317 59.7327 43.8991V23.3413C59.7327 20.2088 57.1839 17.66 54.0507 17.66H53.6066V12.3498C53.6072 5.91741 48.3739 0.684082 41.9415 0.684082C35.5091 0.684082 30.2758 5.91741 30.2758 12.3498V17.66H29.8317C26.6991 17.66 24.1504 20.2088 24.1504 23.342V43.8991C24.1504 47.0323 26.6991 49.581 29.8317 49.581ZM44.4044 34.5841V36.7951C44.4044 38.1556 43.3014 39.2586 41.9415 39.2586C40.581 39.2586 39.478 38.1556 39.478 36.7951V34.5841C38.6417 33.881 38.1098 32.8281 38.1098 31.6495C38.1098 29.5334 39.8254 27.8184 41.9415 27.8184C44.0577 27.8184 45.7726 29.534 45.7726 31.6495C45.7726 32.8281 45.2407 33.881 44.4044 34.5841ZM35.2022 12.3498C35.2022 8.63405 38.2251 5.61043 41.9415 5.61043C45.6573 5.61043 48.6809 8.63341 48.6809 12.3498V17.66H35.2022V12.3498Z" fill="#1877F2" fill-opacity="0.733333"/>
</g>
<defs>
<clipPath id="clip0_789_30852">
<rect width="84" height="84" fill="white" transform="translate(0 0.684082)"/>
</clipPath>
</defs>
</svg>
