<svg width="26" height="25" viewBox="0 0 26 25" fill="none" xmlns="http://www.w3.org/2000/svg">
<g clip-path="url(#clip0_789_8526)">
<path d="M20.6631 19.5187L20.1516 18.6646C19.2316 17.1478 17.962 15.407 16.2967 15.407C15.9881 15.407 15.6826 15.469 15.3801 15.5947L14.4863 15.978C14.4047 16.0118 14.3254 16.0503 14.2414 16.0912C14.0126 16.2025 13.7532 16.3285 13.4864 16.3285C12.8282 16.3285 12.0655 15.4719 11.3393 13.9166C10.6265 12.3901 10.672 11.5899 10.8356 11.1872C11.0162 10.743 11.436 10.553 11.887 10.3823C11.9497 10.3585 12.0064 10.337 12.0614 10.3143L12.9666 9.93319C15.3246 8.9471 14.4474 5.50106 14.1597 4.37126L13.9158 3.39988C13.7073 2.59929 13.1544 0.472778 11.3205 0.472778C10.981 0.472778 10.6188 0.551874 10.2443 0.707964C9.99864 0.805534 6.61754 2.18567 5.39261 4.61032C3.92862 7.49638 4.19931 11.3665 6.1964 16.1109C8.17855 20.8611 10.7489 23.7667 13.8361 24.7466C14.3656 24.9148 14.9641 25 15.615 25H15.6153C17.7458 25 19.8489 24.0936 20.0196 24.0183C20.7541 23.7072 21.2289 23.2342 21.4307 22.6126C21.7728 21.5585 21.1989 20.4036 20.6631 19.5187ZM19.8522 22.1005C19.8053 22.2449 19.6423 22.3768 19.3679 22.4923C19.3634 22.4943 19.3578 22.4966 19.3532 22.4987C19.3342 22.5071 17.4306 23.3409 15.6149 23.3408C15.1346 23.3408 14.705 23.2817 14.3382 23.1651C11.7373 22.3395 9.51334 19.7513 7.72666 15.4696C5.9267 11.1932 5.63908 7.79219 6.87297 5.3598C7.83109 3.46338 10.8306 2.26034 10.8601 2.24884C10.866 2.24641 10.8719 2.24408 10.8778 2.24165C11.0486 2.16996 11.2017 2.13213 11.3205 2.13213C11.6861 2.13213 12.0189 2.69919 12.308 3.81062L12.5508 4.77792C13.0748 6.83551 12.995 8.12251 12.3243 8.40305L11.4235 8.78249C11.3876 8.79731 11.3457 8.81291 11.2995 8.8305C10.8019 9.01889 9.76644 9.41072 9.29817 10.5625C8.87327 11.6077 9.04916 12.9345 9.83536 14.6189C10.8943 16.8859 12.0884 17.9879 13.4862 17.9879C14.1349 17.9879 14.6556 17.7348 14.9666 17.5837C15.0239 17.5558 15.0752 17.5303 15.1302 17.5075L16.0254 17.1236C16.1178 17.0851 16.2065 17.0664 16.2966 17.0664C16.7274 17.0664 17.5 17.4931 18.7304 19.5213L19.2416 20.3748C19.8716 21.415 19.9214 21.8874 19.8522 22.1005Z" fill="#8C8C8C"/>
</g>
<defs>
<clipPath id="clip0_789_8526">
<rect width="24.5273" height="24.5273" fill="white" transform="translate(0.736328 0.472778)"/>
</clipPath>
</defs>
</svg>
