<svg width="24" height="25" viewBox="0 0 24 25" fill="none" xmlns="http://www.w3.org/2000/svg">
<path d="M23.087 6.11053L12.489 0.740671L12.4846 0.738468C12.0127 0.50353 11.452 0.50878 10.9845 0.75253L6.43913 3.16491C6.40219 3.18056 6.3667 3.19955 6.33272 3.22139L0.88575 6.11227C0.339375 6.39834 0 6.95887 0 7.5758V17.5546C0 18.1715 0.339375 18.732 0.88575 19.0181L10.98 24.3755L10.9846 24.3779C11.223 24.5022 11.4857 24.5645 11.7485 24.5645C12.0009 24.5645 12.2535 24.507 12.4846 24.3919L23.087 19.0199C23.6502 18.7382 24 18.1723 24 17.5424V7.58803C24 6.95808 23.6502 6.39216 23.087 6.11053ZM11.6361 1.99814C11.705 1.9628 11.7872 1.96209 11.8567 1.99617L21.7768 7.02258L17.916 8.94469L8.21756 3.81248L11.6361 1.99814ZM11.0355 22.8135L1.54266 17.7752L1.53811 17.7728C1.4565 17.7302 1.40573 17.6467 1.40573 17.5546V8.21011L11.0355 13.2315V22.8135ZM11.7458 12.0165L2.169 7.02272L6.717 4.60898L16.3674 9.71569L11.7458 12.0165ZM22.5942 17.5423C22.5942 17.6364 22.5419 17.7209 22.4577 17.7628L12.4413 22.838V13.2406L17.0531 10.9446V13.3518C17.0531 13.74 17.3678 14.0547 17.756 14.0547C18.1442 14.0547 18.4589 13.74 18.4589 13.3518V10.2447L22.5942 8.18592V17.5423Z" fill="white"/>
</svg>
