<svg width="24" height="25" viewBox="0 0 24 25" fill="none" xmlns="http://www.w3.org/2000/svg">
<g clip-path="url(#clip0_789_13675)">
<path d="M19.4062 1.38051H16.766C16.0693 0.575852 15.0426 0.0654297 13.8984 0.0654297H10.1016C8.95744 0.0654297 7.93069 0.575852 7.23398 1.38051H4.59375C3.43064 1.38051 2.48438 2.32865 2.48438 3.49401V21.9519C2.48438 23.1173 3.43064 24.0654 4.59375 24.0654H19.4062C20.5694 24.0654 21.5156 23.1173 21.5156 21.9519V3.49401C21.5156 2.3286 20.5694 1.38051 19.4062 1.38051ZM10.1016 1.47445H13.8984C14.9849 1.47445 15.8871 2.20171 16.1836 3.16523H7.81641C8.11237 2.2034 9.01345 1.47445 10.1016 1.47445ZM20.1094 21.9519C20.1094 22.3404 19.794 22.6564 19.4062 22.6564H4.59375C4.20605 22.6564 3.89062 22.3404 3.89062 21.9519V3.49401C3.89062 3.10555 4.20605 2.78952 4.59375 2.78952H6.46153C6.36005 3.13218 6.30469 3.49452 6.30469 3.86976C6.30469 4.25882 6.6195 4.57424 7.00781 4.57424H16.9922C17.3805 4.57424 17.6953 4.25882 17.6953 3.86976C17.6953 3.49452 17.64 3.13218 17.5385 2.78952H19.4062C19.794 2.78952 20.1094 3.10555 20.1094 3.49401V21.9519Z" fill="#0E0E0E"/>
<path d="M8.53409 14.0643L7.50002 15.1003L7.24718 14.847C6.97263 14.5718 6.52741 14.5718 6.25282 14.847C5.97823 15.1221 5.97823 15.5682 6.25282 15.8433L7.00282 16.5947C7.27737 16.8698 7.72259 16.8699 7.99718 16.5947L9.5284 15.0605C9.80299 14.7854 9.80299 14.3393 9.5284 14.0642C9.25385 13.7891 8.80863 13.7891 8.53409 14.0643Z" fill="#0E0E0E"/>
<path d="M17.2031 14.625H11.5312C11.1429 14.625 10.8281 14.9404 10.8281 15.3295C10.8281 15.7185 11.1429 16.034 11.5312 16.034H17.2031C17.5914 16.034 17.9062 15.7185 17.9062 15.3295C17.9062 14.9404 17.5914 14.625 17.2031 14.625Z" fill="#0E0E0E"/>
<path d="M8.53409 18.1033L7.50002 19.1394L7.24718 18.8861C6.97263 18.6109 6.52741 18.6109 6.25282 18.8861C5.97823 19.1612 5.97823 19.6072 6.25282 19.8823L7.00282 20.6338C7.27737 20.9089 7.72259 20.909 7.99718 20.6338L9.5284 19.0996C9.80299 18.8245 9.80299 18.3784 9.5284 18.1033C9.25385 17.8282 8.80863 17.8282 8.53409 18.1033Z" fill="#0E0E0E"/>
<path d="M17.2031 18.6641H11.5312C11.1429 18.6641 10.8281 18.9795 10.8281 19.3685C10.8281 19.7576 11.1429 20.073 11.5312 20.073H17.2031C17.5914 20.073 17.9062 19.7576 17.9062 19.3685C17.9062 18.9795 17.5914 18.6641 17.2031 18.6641Z" fill="#0E0E0E"/>
<path d="M13.3409 11.366L15.5156 9.18704V9.27099C15.5156 9.66005 15.8305 9.97547 16.2188 9.97547C16.6071 9.97547 16.9219 9.66005 16.9219 9.27099C16.9219 7.27819 16.9252 7.46372 16.9138 7.38502C16.8641 7.04035 16.5692 6.78164 16.2185 6.78174H14.4375C14.0492 6.78174 13.7344 7.09716 13.7344 7.48622C13.7344 7.87529 14.0492 8.19071 14.4375 8.19071H14.5213L12.8438 9.8715L10.7159 7.73954C10.4414 7.46438 9.99616 7.46438 9.72157 7.73954L7.19032 10.2758C6.91573 10.5509 6.91573 10.9969 7.19032 11.272C7.46487 11.5472 7.91009 11.5472 8.18468 11.272L10.2188 9.234L12.3466 11.366C12.6211 11.6411 13.0664 11.6411 13.3409 11.366Z" fill="#0E0E0E"/>
</g>
<defs>
<clipPath id="clip0_789_13675">
<rect width="24" height="24" fill="white" transform="translate(0 0.0654297)"/>
</clipPath>
</defs>
</svg>
