<svg width="16" height="15" viewBox="0 0 16 15" fill="none" xmlns="http://www.w3.org/2000/svg">
<g clip-path="url(#clip0_789_16155)">
<path d="M11.5278 5.00917C10.0925 4.1121 8.66668 3.86208 7.96877 3.79247V1.38087C7.96877 1.21625 7.87678 1.06543 7.73041 0.990108C7.58404 0.914786 7.40782 0.927589 7.27391 1.02327L0.684014 5.73028C0.568525 5.81278 0.5 5.94597 0.5 6.08788C0.5 6.2298 0.568525 6.36301 0.684014 6.44548L7.27385 11.1525C7.40779 11.2482 7.58395 11.261 7.73038 11.1857C7.87675 11.1104 7.96874 10.9595 7.96874 10.7949V8.41915C9.21105 8.47074 10.3171 8.74347 11.2617 9.23188C13.9666 10.6304 14.5757 13.3912 14.6271 13.6914C14.6626 13.9047 14.8474 14.0586 15.0602 14.0586C15.0723 14.0586 15.0845 14.0581 15.0968 14.0571C15.3247 14.0382 15.5 13.8477 15.5 13.6191C15.5 10.1284 14.4646 6.84468 11.5278 5.00917ZM11.6894 8.46365C10.5036 7.84496 9.10391 7.53125 7.52929 7.53125C7.28659 7.53125 7.08983 7.72801 7.08983 7.9707V9.94101L1.69552 6.08788L7.08983 2.23482V4.20509C7.08983 4.32166 7.13615 4.43343 7.21856 4.51581C7.30098 4.59822 7.41274 4.64454 7.52929 4.64454C7.54686 4.64454 9.30638 4.65726 11.062 5.75451C12.2134 6.47413 13.7647 7.90259 14.3667 10.8837C13.4483 9.50328 12.3463 8.8064 11.6894 8.46365Z" fill="#0E0E0E"/>
</g>
<defs>
<clipPath id="clip0_789_16155">
<rect width="15" height="15" fill="white" transform="translate(0.5)"/>
</clipPath>
</defs>
</svg>
