<svg width="54" height="54" viewBox="0 0 54 54" fill="none" xmlns="http://www.w3.org/2000/svg">
<rect width="54" height="54" rx="20" fill="#52C652" fill-opacity="0.2"/>
<path d="M36.9556 22.0621C34.0729 18.8782 32.3597 16.0754 31.4301 14.2848C30.4233 12.3453 30.0933 11.1426 30.0908 11.133L29.7911 10L28.7208 10.4774C28.5957 10.5332 25.6384 11.8818 23.9814 15.1958C23.1496 16.8595 22.9832 18.7118 22.9902 19.9727C22.9942 20.7064 22.4743 21.3436 21.7541 21.4876C21.2491 21.5885 20.7296 21.4315 20.3651 21.067L18.3713 19.0733L17.6855 20.019C17.6143 20.1172 15.9382 22.4287 15.633 22.8906C14.143 25.1462 13.366 27.7738 13.3861 30.4892C13.4131 34.1159 14.8393 37.5136 17.402 40.0567C19.9646 42.5996 23.3732 44 27.0001 44C34.5069 43.9999 40.6142 37.8927 40.6142 30.3858C40.6143 27.664 39.2807 24.6301 36.9556 22.0621ZM27.0001 42.0061C23.9029 42.0061 20.9931 40.8111 18.8066 38.6413C16.62 36.4715 15.4032 33.5711 15.3801 30.4744C15.3629 28.1562 16.0256 25.9138 17.2968 23.9897C17.452 23.7548 18.0746 22.8863 18.615 22.1368L18.9552 22.477C19.7921 23.3139 20.9844 23.675 22.1453 23.4429C23.7994 23.112 24.9934 21.648 24.9842 19.9618C24.9784 18.9182 25.1092 17.399 25.7649 16.0875C26.563 14.4914 27.7561 13.4482 28.5852 12.8681C29.335 14.7754 31.2359 18.7157 35.4775 23.4005C36.4225 24.4441 38.6203 27.2139 38.6203 30.3859C38.6203 36.7932 33.4075 42.0061 27.0001 42.0061Z" fill="#52C652"/>
<path d="M29.0207 26.9155L22.769 36.0707H24.9793L31.231 26.9155H29.0207Z" fill="#52C652"/>
<path d="M30.3548 31.1008C28.9685 31.1008 27.9221 32.0294 27.9221 33.6512C27.9221 35.2861 28.9684 36.2015 30.3548 36.2015C31.7412 36.2015 32.7875 35.2861 32.7875 33.6512C32.7875 32.0294 31.7411 31.1008 30.3548 31.1008ZM30.3548 34.789C30.0671 34.789 29.7793 34.5274 29.7793 33.6512C29.7793 32.7749 30.0671 32.5133 30.3548 32.5133C30.6425 32.5133 30.9303 32.7749 30.9303 33.6512C30.9303 34.5274 30.6425 34.789 30.3548 34.789Z" fill="#52C652"/>
<path d="M26.078 29.335C26.078 27.7133 25.0317 26.7847 23.6453 26.7847C22.2589 26.7847 21.2126 27.7133 21.2126 29.335C21.2126 30.9698 22.2589 31.8854 23.6453 31.8854C25.0317 31.8854 26.078 30.9698 26.078 29.335ZM23.0699 29.335C23.0699 28.4587 23.3576 28.1971 23.6453 28.1971C23.9331 28.1971 24.2208 28.4587 24.2208 29.335C24.2208 30.2113 23.9331 30.4729 23.6453 30.4729C23.3576 30.4729 23.0699 30.2113 23.0699 29.335Z" fill="#52C652"/>
</svg>
