<svg width="60" height="60" viewBox="0 0 60 60" fill="none" xmlns="http://www.w3.org/2000/svg">
<rect x="0.594059" y="0.594059" width="58.8121" height="58.8121" rx="4.15842" fill="white"/>
<rect x="0.594059" y="0.594059" width="58.8121" height="58.8121" rx="4.15842" stroke="#DBDBDB" stroke-width="1.18812"/>
<g clip-path="url(#clip0_789_17628)">
<path d="M31.8826 16.6338C25.5355 16.6338 20.399 21.7703 20.399 28.1174C20.399 30.8341 21.3366 33.4063 23.0577 35.4659L16.6333 41.8903L18.1097 43.3667L24.5341 36.9423C26.5937 38.6634 29.1659 39.601 31.8826 39.601C38.2297 39.601 43.3662 34.4645 43.3662 28.1174C43.3662 21.7703 38.2297 16.6338 31.8826 16.6338ZM31.8826 37.5131C26.7018 37.5131 22.4869 33.2982 22.4869 28.1174C22.4869 22.9366 26.7018 18.7217 31.8826 18.7217C37.0634 18.7217 41.2783 22.9366 41.2783 28.1174C41.2783 33.2982 37.0634 37.5131 31.8826 37.5131Z" fill="#0E0E0E"/>
</g>
<defs>
<clipPath id="clip0_789_17628">
<rect width="26.7329" height="26.7329" fill="white" transform="translate(16.6335 16.6338)"/>
</clipPath>
</defs>
</svg>
