<svg width="28" height="28" viewBox="0 0 28 28" fill="none" xmlns="http://www.w3.org/2000/svg">
<path d="M15.8826 0.633789C9.5355 0.633789 4.39899 5.7703 4.39899 12.1174C4.39899 14.8341 5.33662 17.4063 7.0577 19.4659L0.633301 25.8903L2.10968 27.3667L8.53408 20.9423C10.5937 22.6634 13.1659 23.601 15.8826 23.601C22.2297 23.601 27.3662 18.4645 27.3662 12.1174C27.3662 5.7703 22.2297 0.633789 15.8826 0.633789ZM15.8826 21.5131C10.7018 21.5131 6.48692 17.2982 6.48692 12.1174C6.48692 6.93662 10.7018 2.72172 15.8826 2.72172C21.0634 2.72172 25.2783 6.93662 25.2783 12.1174C25.2783 17.2982 21.0634 21.5131 15.8826 21.5131Z" fill="#0E0E0E"/>
</svg>
