<svg width="36" height="36" viewBox="0 0 36 36" fill="none" xmlns="http://www.w3.org/2000/svg">
<rect x="0.5" y="0.5" width="35" height="35" rx="9.5" fill="#1877F2" fill-opacity="0.733333"/>
<rect x="0.5" y="0.5" width="35" height="35" rx="9.5" stroke="#DBDBDB"/>
<g clip-path="url(#clip0_1118_923)">
<path d="M29.7253 28.3996L24.8703 23.5444C27.0822 22.155 28.9914 20.0284 29.8776 18.4616C30.0397 18.1752 30.0397 17.8247 29.8776 17.5384C28.1702 14.5201 23.7962 10.4363 18 10.4363C16.2231 10.4363 14.4911 10.8102 12.8597 11.5338L7.60052 6.27466C7.23431 5.90845 6.64069 5.90845 6.27466 6.27466C5.90845 6.64069 5.90845 7.23431 6.27466 7.60052L11.1297 12.4556C8.91778 13.8451 7.00854 15.9715 6.12231 17.5384C5.96027 17.8247 5.96027 18.1752 6.12231 18.4616C7.82977 21.4799 12.2038 25.5637 18 25.5637C19.777 25.5637 21.5088 25.19 23.1405 24.4663L28.3994 29.7255C28.7657 30.0915 29.3593 30.0915 29.7253 29.7255C30.0915 29.3593 30.0915 28.7656 29.7253 28.3996ZM18 23.6887C13.8437 23.6887 10.2828 21.2702 8.05041 17.9998C8.64807 17.1247 10.1446 15.1919 12.4968 13.8226L14.2599 15.5857C13.8091 16.2817 13.5469 17.1108 13.5469 18C13.5469 20.4554 15.5445 22.4531 18 22.4531C18.8891 22.4531 19.7182 22.1911 20.4142 21.7401L21.7024 23.0282C20.6025 23.4338 19.3676 23.6887 18 23.6887ZM19.0347 20.3606C18.7178 20.5001 18.3678 20.5781 18 20.5781C16.5784 20.5781 15.4219 19.4216 15.4219 18C15.4219 17.6321 15.4999 17.2822 15.6394 16.9653L19.0347 20.3606ZM16.9653 15.6394C17.2822 15.4999 17.6321 15.4219 18 15.4219C19.4216 15.4219 20.5781 16.5785 20.5781 18C20.5781 18.368 20.5001 18.7178 20.3606 19.0349L16.9653 15.6394ZM21.7401 20.4142C22.1911 19.7182 22.4531 18.8891 22.4531 18C22.4531 15.5445 20.4554 13.5469 18 13.5469C17.1108 13.5469 16.2817 13.8091 15.5857 14.2599L14.2976 12.9717C15.3975 12.5662 16.6324 12.3113 18 12.3113C22.1563 12.3113 25.7171 14.7297 27.9496 18.0002C27.3519 18.8752 25.8554 20.8081 23.5032 22.1773L21.7401 20.4142Z" fill="white"/>
</g>
<defs>
<clipPath id="clip0_1118_923">
<rect width="24" height="24" fill="white" transform="translate(6 6)"/>
</clipPath>
</defs>
</svg>
