<svg width="32" height="32" viewBox="0 0 32 32" fill="none" xmlns="http://www.w3.org/2000/svg">
<path d="M16 31.0591C7.69651 31.0591 0.941225 24.3035 0.941225 15.9999C0.941225 7.69648 7.69651 0.940918 16 0.940918C24.3034 0.940918 31.0588 7.69648 31.0588 15.9999C31.0588 24.3035 24.3034 31.0591 16 31.0591ZM16 3.00238C8.83321 3.00238 3.00269 8.83304 3.00255 15.9999C3.00255 23.1668 8.83307 28.9975 16 28.9976C23.1667 28.9975 28.9972 23.1668 28.9972 15.9998C28.9972 8.83317 23.1667 3.00238 16 3.00238Z" fill="white"/>
<path d="M18.0223 22.4501C17.6198 22.8525 16.9671 22.8524 16.5647 22.4501C16.162 22.0474 16.162 21.3949 16.5649 20.9922L20.5256 17.0316L9.05603 17.0305C8.48679 17.0304 8.02543 16.569 8.02543 15.9995C8.02557 15.4303 8.48693 14.969 9.05617 14.969L20.5262 14.9701L16.5644 11.0087C16.1619 10.6062 16.1619 9.95336 16.5644 9.55096C16.7658 9.34976 17.0295 9.24902 17.2934 9.24902C17.5571 9.24902 17.8208 9.34976 18.0222 9.55082L23.7433 15.2718C23.9367 15.465 24.0452 15.7271 24.0452 16.0006C24.0451 16.2741 23.9365 16.536 23.7432 16.7297L18.0223 22.4501Z" fill="white"/>
</svg>
