<svg width="14" height="14" viewBox="0 0 14 14" fill="none" xmlns="http://www.w3.org/2000/svg">
<g clip-path="url(#clip0_1779_174)">
<path d="M7 0C3.13113 0 0 3.13086 0 7C0 10.8689 3.13086 14 7 14C10.8689 14 14 10.8691 14 7C14 3.13113 10.8691 0 7 0ZM5.33438 9.95285C5.33438 9.95285 2.91659 7.53408 2.7428 7.36061C2.35618 6.974 2.35618 6.34487 2.7428 5.95859C3.13039 5.57099 3.75722 5.57099 4.14482 5.95859L5.71009 7.52385C5.90472 7.71848 6.22059 7.71714 6.41359 7.52153L9.85042 4.03514C10.2367 3.64325 10.8678 3.6406 11.2574 4.0302C11.641 4.41383 11.6434 5.04033 11.2623 5.42694C7.53011 9.21367 6.82134 9.95252 6.82134 9.95252C6.41159 10.3622 5.74446 10.3626 5.33438 9.95285Z" fill="white"/>
</g>
<defs>
<clipPath id="clip0_1779_174">
<rect width="14" height="14" fill="white"/>
</clipPath>
</defs>
</svg>
