<svg width="54" height="54" viewBox="0 0 54 54" fill="none" xmlns="http://www.w3.org/2000/svg">
<rect width="54" height="54" rx="20" fill="#C74F4F" fill-opacity="0.2"/>
<g clip-path="url(#clip0_953_604)">
<path d="M43.0038 22.8166H39.1523V17.4377C39.1523 17.1713 39.0425 16.9153 38.8606 16.7334C38.8606 16.7268 32.4595 10.2657 32.4212 10.2335C32.2729 10.1089 32.0875 10.0289 31.8931 10.0069C31.8115 9.99785 32.6309 10.0003 16.84 10.0003C15.7415 10.0003 14.8479 10.894 14.8479 11.9925V22.8166H10.9963C10.4462 22.8166 10.0002 23.2626 10.0002 23.8127V38.6875C10.0002 39.2376 10.4462 39.6836 10.9963 39.6836H14.8479V42.0078C14.8479 43.1063 15.7415 44 16.84 44H37.1601C38.2586 44 39.1523 43.1063 39.1523 42.0078V39.6836H43.0038C43.5539 39.6836 43.9999 39.2376 43.9999 38.6875V23.8127C43.9999 23.2625 43.5539 22.8166 43.0038 22.8166ZM32.7774 13.4675L35.7515 16.4416H32.7774V13.4675ZM16.84 11.9925H30.7852V17.4377C30.7852 17.9878 31.2312 18.4338 31.7813 18.4338H37.1601V22.8166H16.84V11.9925ZM37.1601 42.0078H16.84V39.6836H37.1601V42.0078ZM42.0077 37.6914H11.9924V24.8088H42.0077V37.6914Z" fill="#C74F4F"/>
<path d="M21.1564 26.5354H15.844C15.2939 26.5354 14.8479 26.9814 14.8479 27.5315C14.8479 28.0816 15.2939 28.5276 15.844 28.5276H17.5041V34.9689C17.5041 35.519 17.9501 35.965 18.5002 35.965C19.0503 35.965 19.4963 35.519 19.4963 34.9689V28.5276H21.1564C21.7065 28.5276 22.1525 28.0816 22.1525 27.5315C22.1525 26.9814 21.7065 26.5354 21.1564 26.5354Z" fill="#C74F4F"/>
<path d="M28.101 27.2873C27.9407 26.854 27.5142 26.5352 27.0099 26.5352C26.5342 26.5352 26.1096 26.8196 25.9292 27.2606C25.9212 27.2801 26.0474 26.9468 23.1465 34.6163C22.8986 35.2713 23.3868 35.965 24.0779 35.965C24.4801 35.965 24.859 35.7196 25.0097 35.3211L25.3691 34.371H28.6333L28.9893 35.3189C29.1827 35.8339 29.7573 36.0946 30.272 35.9012C30.787 35.7078 31.0477 35.1335 30.8543 34.6185L28.101 27.2873ZM26.1227 32.3789L27.0071 30.0409L27.8852 32.3789H26.1227Z" fill="#C74F4F"/>
<path d="M37.3456 26.9524L35.4999 29.5363L33.6542 26.9524C33.3345 26.5047 32.7123 26.4011 32.2647 26.7207C31.817 27.0405 31.7133 27.6626 32.0331 28.1103L34.2758 31.25L32.0331 34.3897C31.56 35.0521 32.0417 35.9649 32.8428 35.9649C33.1536 35.9649 33.4598 35.8198 33.6542 35.5476L35.4999 32.9637L37.3456 35.5476C37.54 35.8198 37.8461 35.9649 38.157 35.9649C38.958 35.9649 39.4399 35.0522 38.9667 34.3897L36.724 31.25L38.9667 28.1103C39.2864 27.6626 39.1828 27.0405 38.7351 26.7207C38.2876 26.4011 37.6654 26.5047 37.3456 26.9524Z" fill="#C74F4F"/>
<path d="M24.8752 14.3167H20.094C19.5439 14.3167 19.0979 14.7626 19.0979 15.3127C19.0979 15.8629 19.5439 16.3088 20.094 16.3088H24.8752C25.4254 16.3088 25.8713 15.8629 25.8713 15.3127C25.8713 14.7626 25.4254 14.3167 24.8752 14.3167Z" fill="#C74F4F"/>
<path d="M24.8752 18.5667H20.094C19.5439 18.5667 19.0979 19.0126 19.0979 19.5627C19.0979 20.1129 19.5439 20.5588 20.094 20.5588H24.8752C25.4254 20.5588 25.8713 20.1129 25.8713 19.5627C25.8713 19.0126 25.4254 18.5667 24.8752 18.5667Z" fill="#C74F4F"/>
</g>
<defs>
<clipPath id="clip0_953_604">
<rect width="34" height="34" fill="white" transform="translate(10 10)"/>
</clipPath>
</defs>
</svg>
