<svg width="36" height="36" viewBox="0 0 36 36" fill="none" xmlns="http://www.w3.org/2000/svg">
<path d="M17.9997 35.8824C8.13955 35.8824 0.117783 27.8603 0.117783 17.9999C0.117783 8.13977 8.13955 0.117676 17.9997 0.117676C27.8599 0.117676 35.8818 8.13977 35.8818 17.9999C35.8818 27.8603 27.8599 35.8824 17.9997 35.8824ZM17.9997 2.56563C9.48935 2.56563 2.56573 9.48941 2.56557 17.9999C2.56557 26.5105 9.48919 33.4343 17.9997 33.4344C26.5101 33.4343 33.4337 26.5105 33.4337 17.9998C33.4337 9.48957 26.5101 2.56563 17.9997 2.56563Z" fill="white"/>
<path d="M20.4011 25.6594C19.9231 26.1373 19.1481 26.1371 18.6703 25.6594C18.1921 25.1812 18.1921 24.4064 18.6704 23.9282L23.3738 19.2251L9.75386 19.2238C9.0779 19.2236 8.53004 18.6757 8.53004 17.9995C8.53021 17.3235 9.07806 16.7758 9.75402 16.7758L23.3744 16.7771L18.6699 12.073C18.1919 11.595 18.1919 10.8198 18.6699 10.3419C18.909 10.103 19.2222 9.9834 19.5355 9.9834C19.8487 9.9834 20.1619 10.103 20.401 10.3418L27.1947 17.1353C27.4243 17.3648 27.5532 17.676 27.5532 18.0008C27.5531 18.3255 27.4241 18.6366 27.1945 18.8665L20.4011 25.6594Z" fill="white"/>
</svg>
