<svg width="36" height="36" viewBox="0 0 36 36" fill="none" xmlns="http://www.w3.org/2000/svg">
<path d="M17.9998 35.8824C27.86 35.8824 35.8817 27.8603 35.8817 17.9999C35.8817 8.13977 27.86 0.117676 17.9998 0.117676C8.13961 0.117676 0.117676 8.13977 0.117676 17.9999C0.117676 27.8603 8.13961 35.8824 17.9998 35.8824ZM17.9998 2.56563C26.5102 2.56563 33.4338 9.48941 33.4339 17.9999C33.4339 26.5105 26.5103 33.4343 17.9998 33.4344C9.48941 33.4343 2.56579 26.5105 2.56579 17.9998C2.56579 9.48957 9.48941 2.56563 17.9998 2.56563Z" fill="white"/>
<path d="M15.5983 25.6594C16.0763 26.1373 16.8513 26.1371 17.3291 25.6594C17.8073 25.1812 17.8073 24.4064 17.329 23.9282L12.6256 19.2251L26.2455 19.2238C26.9215 19.2236 27.4693 18.6757 27.4693 17.9995C27.4692 17.3235 26.9213 16.7758 26.2454 16.7758L12.625 16.7771L17.3294 12.073C17.8075 11.595 17.8075 10.8198 17.3294 10.3419C17.0904 10.103 16.7772 9.9834 16.4639 9.9834C16.1507 9.9834 15.8375 10.103 15.5984 10.3418L8.80471 17.1353C8.57509 17.3648 8.44617 17.676 8.44617 18.0008C8.44633 18.3255 8.57526 18.6366 8.80487 18.8665L15.5983 25.6594Z" fill="white"/>
</svg>
