<svg width="259" height="259" viewBox="0 0 259 259" fill="none" xmlns="http://www.w3.org/2000/svg">
<rect width="259" height="258.478" rx="129.239" fill="#C74F4F" fill-opacity="0.2"/>
<g clip-path="url(#clip0_953_1088)">
<path d="M188.109 65.4202H163.688V60.5361C163.688 52.4568 157.115 45.8838 149.036 45.8838H109.963C101.884 45.8838 95.3111 52.4568 95.3111 60.5361V65.4202H70.8906C62.8113 65.4202 56.2383 71.9932 56.2383 80.0725C56.2383 86.5612 60.4793 92.0746 66.3337 93.9957L75.0453 199.158C75.6728 206.693 82.0865 212.594 89.6468 212.594H169.353C176.913 212.594 183.327 206.693 183.955 199.156L192.666 93.9954C198.52 92.0746 202.761 86.5612 202.761 80.0725C202.761 71.9932 196.188 65.4202 188.109 65.4202ZM105.079 60.5361C105.079 57.843 107.27 55.652 109.963 55.652H149.036C151.729 55.652 153.92 57.843 153.92 60.5361V65.4202H105.079V60.5361ZM174.22 198.348C174.01 200.859 171.873 202.826 169.353 202.826H89.6468C87.1269 202.826 84.989 200.859 84.7803 198.35L76.196 94.7248H182.803L174.22 198.348ZM188.109 84.9566H70.8906C68.1975 84.9566 66.0065 82.7656 66.0065 80.0725C66.0065 77.3794 68.1975 75.1884 70.8906 75.1884H188.109C190.802 75.1884 192.993 77.3794 192.993 80.0725C192.993 82.7656 190.802 84.9566 188.109 84.9566Z" fill="#C74F4F"/>
<path d="M109.893 187.871L104.994 109.074C104.826 106.382 102.489 104.334 99.8008 104.502C97.0999 104.669 95.0464 106.986 95.2136 109.679L100.113 188.476C100.274 191.065 102.431 193.058 104.998 193.058C107.836 193.058 110.067 190.675 109.893 187.871Z" fill="#C74F4F"/>
<path d="M129.5 104.493C126.794 104.493 124.601 106.68 124.601 109.377V188.174C124.601 190.871 126.794 193.058 129.5 193.058C132.206 193.058 134.399 190.871 134.399 188.174V109.377C134.399 106.68 132.206 104.493 129.5 104.493Z" fill="#C74F4F"/>
<path d="M159.199 104.503C156.504 104.336 154.173 106.383 154.006 109.075L149.106 187.872C148.939 190.564 150.993 192.882 153.693 193.049C156.395 193.215 158.719 191.167 158.886 188.476L163.786 109.68C163.953 106.987 161.899 104.669 159.199 104.503Z" fill="#C74F4F"/>
</g>
<defs>
<clipPath id="clip0_953_1088">
<rect width="167.232" height="166.711" fill="white" transform="translate(45.8838 45.8838)"/>
</clipPath>
</defs>
</svg>
