<svg width="54" height="54" viewBox="0 0 54 54" fill="none" xmlns="http://www.w3.org/2000/svg">
<rect width="54" height="54" rx="20" fill="#0000FF" fill-opacity="0.2"/>
<path d="M20.9996 13.6802C17.6644 13.6802 14.9507 16.5559 14.9507 20.091C14.9507 23.6267 17.6644 26.5024 20.9996 26.5024C24.3348 26.5024 27.0478 23.6267 27.0478 20.091C27.0478 16.5558 24.3348 13.6802 20.9996 13.6802ZM20.9996 24.5104C18.7626 24.5104 16.9426 22.5277 16.9426 20.0909C16.9426 17.6541 18.7626 15.6721 20.9996 15.6721C23.2359 15.6721 25.0559 17.6541 25.0559 20.0909C25.0558 22.5277 23.2359 24.5104 20.9996 24.5104Z" fill="#0000FF" fill-opacity="0.733333"/>
<path d="M34.6418 14.5932C31.7767 14.6171 29.4653 17.1024 29.4906 20.1341C29.5025 21.5895 30.0463 22.9574 31.0204 23.9845C32.003 25.0203 33.3051 25.5894 34.6908 25.5894H34.7327C37.5978 25.5655 39.9084 23.0802 39.8839 20.0484C39.8587 17.0167 37.5055 14.5706 34.6418 14.5932ZM34.7161 23.5975C33.8729 23.6034 33.0741 23.2549 32.4659 22.6135C31.8397 21.9534 31.4905 21.0671 31.4826 20.1175C31.4666 18.1846 32.8916 16.5997 34.6584 16.5851H34.6829C36.4385 16.5851 37.876 18.1401 37.8919 20.0644C37.908 21.9979 36.483 23.5829 34.7161 23.5975Z" fill="#0000FF" fill-opacity="0.733333"/>
<path d="M44 35.8871C44 30.7518 39.8222 26.574 34.6869 26.574C31.9022 26.574 29.3983 27.803 27.6905 29.7478C25.8353 28.3216 23.5147 27.473 20.9995 27.473C14.9341 27.473 10 32.4078 10 38.4726V40.3199H31.9985V38.4726C31.9985 38.1759 31.9865 37.8817 31.9633 37.5909H44V35.8871ZM11.9933 38.3279C12.0703 33.4277 16.0808 29.465 20.9995 29.465C23.0877 29.465 25.012 30.1795 26.5418 31.376C27.0922 31.8076 27.5909 32.3009 28.0284 32.8454C28.6818 33.6601 29.1964 34.5897 29.537 35.5989C29.7515 36.2344 29.8968 36.901 29.9639 37.5908C29.9878 37.8339 30.0018 38.0795 30.0057 38.3279H11.9933ZM31.6174 35.5989C31.1579 33.9018 30.3007 32.366 29.154 31.0984C30.4972 29.548 32.4798 28.566 34.6869 28.566C38.627 28.566 41.8506 31.6954 42.0027 35.5989H31.6174Z" fill="#0000FF" fill-opacity="0.733333"/>
</svg>
